<svg width="245" height="30" viewBox="0 0 245 30" fill="none" xmlns="http://www.w3.org/2000/svg">
<path d="M35.1249 12.0256H41.2259C43.492 12.0256 45.5838 10.9756 45.5838 8.52559C45.5838 7.12559 44.3636 6.60059 42.2718 6.60059H36.3451L35.1249 12.0256ZM32.6845 23.0506H38.9599C41.4003 23.2256 43.492 21.4756 43.8407 19.2006V18.6756C43.8407 17.1006 42.4461 16.4006 40.703 16.4006H34.2533L32.6845 23.0506ZM31.9873 2.22559H44.1893C49.2444 2.22559 50.4646 4.85059 50.4646 7.12559C50.639 9.92559 48.8958 12.5506 46.2811 13.7756C48.0242 14.3006 49.0701 16.0506 49.0701 17.9756C49.0701 20.0756 48.1985 27.2506 37.391 27.2506H26.7578L31.9873 2.22559Z" fill="#0F1319"/>
<path d="M58.831 23.0506H63.8861C69.1156 23.0506 71.7303 16.0506 71.7303 11.3256C71.7303 7.12559 69.1156 6.60059 67.3724 6.60059H62.3173L58.831 23.0506ZM58.1337 2.22559H69.1156C75.3909 2.22559 77.1341 6.42559 77.1341 10.4506C77.1341 16.2256 73.4735 27.2506 63.7118 27.2506H52.9043L58.1337 2.22559Z" fill="#0F1319"/>
<path d="M101.539 18.6754C97.7041 18.8504 95.6123 20.7754 95.6123 23.2254C95.6123 24.9754 97.1811 25.8504 98.9243 25.8504C102.236 25.8504 105.897 24.2754 106.594 20.4254L107.117 17.6254C105.374 18.3254 103.456 18.6754 101.539 18.6754ZM95.7866 14.4754C97.0068 10.1004 100.493 8.52539 104.502 8.52539C107.64 8.52539 110.08 9.57539 110.08 12.7254C110.08 13.2504 110.08 13.7754 109.906 14.3004L107.814 24.2754C107.814 24.6254 107.64 24.9754 107.64 25.1504C107.64 25.6754 107.814 26.0254 108.337 26.0254C108.86 26.0254 109.209 25.8504 109.732 25.6754L109.383 27.4254C108.86 27.6004 108.163 27.7754 107.64 27.7754C106.245 27.7754 105.548 27.4254 105.548 25.8504V24.9754C103.631 26.9004 101.016 27.9504 98.227 27.9504C95.438 27.9504 93.1719 26.5504 93.1719 23.9254C93.1719 20.7754 95.2637 17.9754 100.842 17.1004L105.025 16.5754C107.466 16.2254 107.989 15.0004 107.989 13.2504C107.989 11.5004 106.943 10.4504 104.154 10.4504C101.365 10.1004 98.7499 11.8504 98.0527 14.6504L95.7866 14.4754Z" fill="#0F1319"/>
<path d="M117.751 12.3754C118.971 9.75039 121.586 8.35039 124.549 8.52539L124.026 10.8004C119.32 10.8004 117.402 14.3004 116.531 18.3254L114.788 27.2504H112.521L116.356 8.87539H118.448L117.751 12.3754Z" fill="#0F1319"/>
<path d="M138.318 14.8246C138.493 12.5496 136.749 10.6246 134.483 10.4496H133.96C128.557 10.4496 125.942 16.7496 125.942 20.5996C125.942 23.3996 127.162 25.8496 130.648 25.8496C133.612 25.8496 136.401 23.7496 137.272 20.9496H139.538C138.318 24.9746 134.483 27.7746 130.3 27.7746C125.593 27.7746 123.676 24.9746 123.676 21.1246C123.676 14.9996 127.859 8.34961 134.309 8.34961C138.493 8.34961 140.41 10.2746 140.41 14.6496L138.318 14.8246Z" fill="#0F1319"/>
<path d="M147.732 11.5C149.475 9.75 151.741 8.525 154.182 8.525C157.494 8.525 159.411 10.1 159.411 13.25C159.411 13.95 159.411 14.65 159.237 15.35L156.796 27.25H154.704L157.145 15.35C157.319 14.825 157.319 14.125 157.319 13.6C157.319 11.5 156.099 10.45 153.484 10.45C149.649 10.45 147.383 13.775 146.512 17.275L144.42 27.25H142.328L147.732 1.875H149.824L147.732 11.5Z" fill="#0F1319"/>
<path d="M167.255 5.025L167.953 1.875H170.044L169.347 5.025H167.255ZM164.641 27.25H162.549L166.384 8.875H168.475L164.641 27.25Z" fill="#0F1319"/>
<path d="M177.018 27.4246C176.146 27.5996 175.275 27.7746 174.578 27.7746C172.834 27.7746 171.963 27.2496 171.963 25.4996C171.963 24.9746 171.963 24.6246 172.137 24.0996L174.926 10.7996H172.312L172.66 9.04961H175.275L176.321 3.97461H178.413L177.367 9.04961H180.679L180.33 10.7996H177.018L174.403 23.3996C174.229 23.9246 174.229 24.4496 174.229 24.9746C174.229 25.6746 174.578 26.0246 175.798 26.0246C176.321 26.0246 177.018 25.8496 177.541 25.8496L177.018 27.4246Z" fill="#0F1319"/>
<path d="M196.017 16.9254C196.192 16.4004 196.192 15.7004 196.192 15.1754C196.366 12.9004 194.797 10.8004 192.357 10.4504H191.485C187.825 10.4504 185.21 13.4254 183.99 16.9254H196.017ZM183.815 18.6754C183.641 19.3754 183.641 20.0754 183.641 20.7754C183.641 23.7504 185.21 25.8504 188.348 25.8504C191.137 25.8504 193.577 24.2754 194.797 21.6504H197.063C195.494 25.3254 192.008 27.7754 187.999 27.7754C183.292 27.7754 181.375 25.1504 181.375 21.3004C181.375 14.8254 185.907 8.52539 192.008 8.52539C196.017 8.52539 198.284 10.8004 198.284 15.1754C198.284 16.4004 198.109 17.4504 197.935 18.6754H183.815Z" fill="#0F1319"/>
<path d="M215.715 14.8246C215.889 12.5496 214.146 10.6246 211.88 10.4496H211.357C205.953 10.4496 203.338 16.7496 203.338 20.5996C203.338 23.3996 204.559 25.8496 208.045 25.8496C211.008 25.8496 213.797 23.7496 214.669 20.9496H216.935C215.715 24.9746 211.88 27.7746 207.696 27.7746C202.99 27.7746 201.072 24.9746 201.072 21.1246C201.072 14.9996 205.256 8.34961 211.705 8.34961C215.889 8.34961 217.806 10.2746 217.806 14.6496L215.715 14.8246Z" fill="#0F1319"/>
<path d="M225.825 27.4246C224.953 27.5996 224.082 27.7746 223.384 27.7746C221.641 27.7746 220.77 27.2496 220.77 25.4996C220.77 24.9746 220.77 24.6246 220.944 24.0996L223.733 10.7996H221.118L221.467 9.04961H224.082L225.127 3.97461H227.219L226.173 9.04961H229.485L229.137 10.7996H225.825L223.21 23.3996C223.036 23.9246 223.036 24.4496 223.036 24.9746C223.036 25.6746 223.384 26.0246 224.604 26.0246C225.127 26.0246 225.825 25.8496 226.348 25.8496L225.825 27.4246Z" fill="#0F1319"/>
<path d="M242.734 14.3004V13.6004C242.734 11.5004 241.165 10.4504 238.725 10.4504C236.284 10.4504 233.844 11.8504 233.844 14.1254C233.844 15.8754 235.936 16.4004 238.202 16.9254C240.816 17.6254 243.78 18.5004 243.78 21.3004C243.78 25.5004 239.77 27.7754 235.238 27.7754C231.403 27.7754 229.66 25.6754 229.66 22.7004V21.6504H231.752C231.752 24.8004 233.146 26.0254 236.284 26.0254C239.422 26.0254 241.514 24.2754 241.514 22.0004C241.514 20.4254 240.119 19.5504 236.807 19.0254C232.972 18.3254 231.578 16.9254 231.578 15.0004C231.578 11.3254 234.715 8.52539 239.073 8.52539C242.734 8.52539 244.826 9.92539 244.826 13.4254V14.3004H242.734Z" fill="#0F1319"/>
<path d="M10.7206 17.8006H17.3446L15.9501 8.00059L10.7206 17.8006ZM20.3079 2.22559L23.7942 27.2506H18.2162L17.6932 22.0006H8.45452L5.66548 27.2506H0.261719L14.2069 2.22559H20.3079Z" fill="#0F1319"/>
</svg>
