<svg width="180" height="54" viewBox="0 0 180 54" fill="none" xmlns="http://www.w3.org/2000/svg">
<path d="M38.6377 51.9072C46.1416 51.9072 52.2247 45.8178 52.2247 38.3061C52.2247 30.7945 46.1416 24.7051 38.6377 24.7051C31.1339 24.7051 25.0508 30.7945 25.0508 38.3061C25.0508 45.8178 31.1339 51.9072 38.6377 51.9072Z" fill="#0F1319"/>
<path d="M13.1234 44.6183C16.6056 44.6183 19.4285 41.7925 19.4285 38.3067C19.4285 34.8209 16.6056 31.9951 13.1234 31.9951C9.64123 31.9951 6.81836 34.8209 6.81836 38.3067C6.81836 41.7925 9.64123 44.6183 13.1234 44.6183Z" fill="#0F1319"/>
<path d="M38.6386 21.5043C43.4614 21.5043 47.371 17.5906 47.371 12.7629C47.371 7.93514 43.4614 4.02148 38.6386 4.02148C33.8159 4.02148 29.9062 7.93514 29.9062 12.7629C29.9062 17.5906 33.8159 21.5043 38.6386 21.5043Z" fill="#0F1319"/>
<path d="M13.1226 23.9343C19.2859 23.9343 24.2822 18.9327 24.2822 12.763C24.2822 6.59332 19.2859 1.5918 13.1226 1.5918C6.95924 1.5918 1.96289 6.59332 1.96289 12.763C1.96289 18.9327 6.95924 23.9343 13.1226 23.9343Z" fill="#0F1319"/>
<path d="M87.4811 44.5573H94.5262L81.472 8.99902H76.351L63.2969 44.5573H70.3716L72.8581 37.7716H84.9946L87.4811 44.5573L74.8117 32.4082L78.9263 21.237L83.0409 32.4082H74.8117L87.4811 44.5573Z" fill="#0F1319"/>
<path d="M111.991 20.2607L105.508 37.9214L99.0252 20.2607H92.3945L101.305 44.5589H109.682L118.592 20.2607H111.991Z" fill="#0F1319"/>
<path d="M121.404 20.2588H128.035V44.5569H121.404V20.2588Z" fill="#0F1319"/>
<path d="M124.72 17.5037C127.074 17.5037 128.982 15.5933 128.982 13.2367C128.982 10.8801 127.074 8.96973 124.72 8.96973C122.365 8.96973 120.457 10.8801 120.457 13.2367C120.457 15.5933 122.365 17.5037 124.72 17.5037Z" fill="#0F1319"/>
<path d="M151.389 25.6237V20.2603H143.456V13.5635H136.825V20.2603H131.586V25.6237H136.825V36.0837C136.825 41.4767 139.519 45.0622 146.387 45.0622C149.051 45.0622 151.36 44.0843 151.36 44.0843L150.56 38.8395C150.56 38.8395 149.258 39.2247 147.659 39.2247C145.706 39.2247 143.426 38.3654 143.426 35.6689V25.6237H151.389Z" fill="#0F1319"/>
<path d="M166.575 38.9873C162.875 38.9873 159.885 36.0538 159.885 32.4387C159.885 28.8236 162.875 25.89 166.575 25.89C170.275 25.89 173.265 28.8236 173.265 32.4387C173.265 36.0538 170.275 38.9873 166.575 38.9873ZM166.575 19.6377C159.412 19.6377 153.58 25.327 153.58 32.3498C153.58 39.3725 159.412 45.0619 166.575 45.0619C173.739 45.0619 179.57 39.3725 179.57 32.3498C179.57 25.327 173.739 19.6377 166.575 19.6377Z" fill="#0F1319"/>
</svg>
