<svg width="103" height="27" viewBox="0 0 103 27" fill="none" xmlns="http://www.w3.org/2000/svg">
<path d="M25.3477 13.5C25.3477 20.1274 19.9751 25.5 13.3477 25.5C6.72024 25.5 1.34766 20.1274 1.34766 13.5C1.34766 6.87258 6.72024 1.5 13.3477 1.5C19.9751 1.5 25.3477 6.87258 25.3477 13.5Z" fill="#66D1FC" stroke="#0F1319"/>
<path d="M51.3477 26C58.2512 26 63.8477 20.4036 63.8477 13.5C63.8477 6.59644 58.2512 1 51.3477 1C44.4441 1 38.8477 6.59644 38.8477 13.5C38.8477 20.4036 44.4441 26 51.3477 26Z" fill="#66D1FC" stroke="#0F1319" stroke-miterlimit="10"/>
<path d="M89.5 26C96.4036 26 102 20.4036 102 13.5C102 6.59644 96.4036 1 89.5 1C82.5964 1 77 6.59644 77 13.5C77 20.4036 82.5964 26 89.5 26Z" fill="#66D1FC" stroke="#0F1319" stroke-miterlimit="10"/>
</svg>
