<svg width="311" height="219" viewBox="0 0 311 219" fill="none" xmlns="http://www.w3.org/2000/svg">
<path d="M258.593 41.2904C289.825 62.4993 288.189 114.044 263.533 142.391C239.093 172.44 196.951 173.381 169.33 151.169C137.579 125.636 139.034 85.6062 163.457 55.5766C188.98 26.4464 230.421 18.1435 258.593 41.2904Z" fill="white"/>
<path d="M87.4871 176.007C105.862 201.558 148.474 198.832 171.283 177.472C195.506 156.248 195.174 120.991 176.064 98.4848C154.097 72.6136 121.009 74.885 96.8018 96.0951C73.3679 118.201 67.5892 153.065 87.4871 176.007Z" fill="white"/>
<path d="M27.3615 75.4816C10.7053 90.5342 15.8655 120.739 32.6861 135.396C49.5179 151.072 74.3995 148.159 88.8486 132.813C105.458 115.173 101.342 91.7309 84.5215 76.0645C67.1267 61.0181 42.0586 59.5399 27.3615 75.4816Z" fill="white"/>
<path d="M184.819 160.945C257.813 188.734 304.572 104.768 271.367 53.2926" stroke="#0F1319" stroke-linecap="round"/>
<path d="M185.064 111.073C212.116 168.671 141.184 212.744 97.7105 186.341C90.6404 181.35 76.3 165.741 75.5 143.227" stroke="#0F1319" stroke-linecap="round"/>
<path d="M80.6393 140.192C42.0025 163.869 5.48477 116.592 20.8378 83.5622C23.8265 78.1377 33.7651 66.7188 49.6095 64.4392" stroke="#0F1319" stroke-linecap="round"/>
</svg>
