<svg width="204" height="147" viewBox="0 0 204 147" fill="none" xmlns="http://www.w3.org/2000/svg">
<path d="M61.2746 81.2053C48.6401 59.7851 64.1402 29.6893 86.8207 19.8666C109.852 8.97336 135.229 20.3518 145.429 41.3439C157.155 65.4747 145.007 88.795 121.991 99.6812C98.5735 109.723 71.5393 102.908 61.2746 81.2053Z" fill="white"/>
<path d="M195.361 47.8825C192.017 29.733 168.689 20.4119 151.201 25.9438C132.996 31.0465 124.313 49.77 128.812 66.4951C133.984 85.721 152.137 92.8772 170.33 87.7778C188.337 82.0097 200.169 65.0372 195.361 47.8825Z" fill="white"/>
<path d="M138.951 31.1629C103.285 -5.98699 51.7606 30.5509 57.0419 70.4737" stroke="#0F1319" stroke-linecap="round"/>
<path d="M127.194 57.5668C127.292 20.2831 176.059 14.8983 192.525 39.8372C195.028 44.2611 198.726 56.1352 193.493 68.2402" stroke="#0F1319" stroke-linecap="round"/>
<path d="M57.0998 70.869C40.5644 62.6079 19.0501 75.6562 12.939 92.9809C6.05219 110.621 15.8005 128.85 31.8929 135.328C50.3912 142.775 67.0549 132.563 73.9372 114.934C80.1724 97.0514 73.7221 77.3584 57.0998 70.869Z" fill="white"/>
<path d="M23.7759 131.244C-5.99465 108.7 19.0814 66.4384 48.9561 68.2911C54.0038 68.9541 59.4316 70.3635 63.4293 77.5245" stroke="#0F1319" stroke-linecap="round"/>
</svg>
