<svg width="234" height="169" viewBox="0 0 234 169" fill="none" xmlns="http://www.w3.org/2000/svg">
<path d="M108.178 71.4038C103.196 37.5488 138.781 7.24969 172.963 6.51156C208.154 4.59152 234.706 32.2689 236.794 64.3143C239.194 101.151 211.446 124.558 176.278 126.477C141.037 127.111 109.978 104.388 108.178 71.4038Z" fill="white"/>
<path d="M117.02 66.2484C102.27 41.8443 63.4433 41.1358 41.1778 58.6998C17.6405 76.0359 15.3137 107.85 30.9568 129.563C48.9388 154.522 79.0986 154.933 102.621 137.608C125.508 119.418 133.345 88.4128 117.02 66.2484Z" fill="white"/>
<path d="M233.292 48.5944C207.172 -16.853 122.338 2.89446 108.233 56.1998" stroke="#0F1319" stroke-width="0.998754" stroke-linecap="round"/>
<path d="M23.5965 117.403C3.37287 63.5312 70.7653 29.1768 108.136 56.2001C114.162 61.2216 125.982 76.3459 125.047 96.6711" stroke="#0F1319" stroke-width="0.998754" stroke-linecap="round"/>
</svg>
