<svg width="257" height="198" viewBox="0 0 257 198" fill="none" xmlns="http://www.w3.org/2000/svg">
<path d="M2.09511 77.9595C-0.699951 35.4145 46.2699 1.31995 88.5724 3.8021C132.238 4.91654 162.294 41.9334 161.694 81.943C161.003 127.935 124.399 154.248 80.7611 153.134C37.1611 150.417 1.04487 119.106 2.09511 77.9595Z" fill="white"/>
<path d="M240.527 137.957C250.509 103.908 218.539 67.7028 183.73 62.0517C148.062 55.0426 116.941 79.6607 110.177 112.266C102.402 149.746 127.364 177.753 163.009 184.757C198.914 190.453 233.923 171.567 240.527 137.957Z" fill="white"/>
<path d="M159.647 61.3545C133.748 -23.0556 26.6615 -6.92431 3.91081 58.2625" stroke="#0F1319" stroke-linecap="round"/>
<path d="M115.13 95.5393C147.591 31.6274 235.963 64.6227 242.627 121.692C243.091 131.453 239.154 155.038 219.688 171.284" stroke="#0F1319" stroke-linecap="round"/>
</svg>
