<svg width="327" height="305" viewBox="0 0 327 305" fill="none" xmlns="http://www.w3.org/2000/svg">
<path d="M109.906 102.31C141.42 58.4439 214.81 62.9036 254.191 99.3844C296.007 135.625 295.609 196.028 262.814 234.681C225.116 279.113 168.129 275.386 126.34 239.169C85.8791 201.414 75.7563 141.713 109.906 102.31Z" fill="white"/>
<path d="M126.092 106.795C136.116 62.9776 92.9265 19.6349 48.4795 15.1448C2.8419 9.00316 -34.6329 42.5076 -40.698 84.2535C-47.6698 132.241 -13.9688 165.751 31.6391 171.889C77.476 176.351 120.305 149.799 126.092 106.795Z" fill="white"/>
<path d="M277.382 212.891C319.997 109.475 202.263 39.0515 127.534 84.5013" stroke="#0F1319" stroke-linecap="round"/>
<path d="M-35.7071 62.7181C0.464537 -20.5761 114.729 14.4044 127.51 86.0607C128.842 98.3688 125.663 128.492 102.288 150.521" stroke="#0F1319" stroke-linecap="round"/>
</svg>
