<svg width="286" height="238" viewBox="0 0 286 238" fill="none" xmlns="http://www.w3.org/2000/svg">
<path d="M10.8227 163.974C1.89435 122.001 43.7544 81.2576 86.2481 77.6206C129.902 72.4244 165.185 104.954 170.365 144.892C176.32 190.802 143.66 222.297 100.034 227.49C56.2145 231.081 15.7191 205.109 10.8227 163.974Z" fill="white"/>
<path d="M165.349 124.68C127.362 44.3438 23.0293 75.8768 9.78287 144.091" stroke="#0F1319" stroke-linecap="round"/>
<path d="M122.52 127.355C99.239 104.282 108.917 60.7258 134.538 40.6073C160.247 19.0068 196.409 25.0106 216.442 48.3533C239.472 75.1861 231.799 108.982 206.106 130.569C179.618 151.213 142.874 151.581 122.52 127.355Z" fill="white"/>
<path d="M204.776 37.5416C146.868 2.13211 93.4265 65.967 113.531 115.089" stroke="#0F1319" stroke-linecap="round"/>
<path d="M196.555 79.9016C182.691 26.5675 250.38 0.551445 283.286 30.0164C288.526 35.4003 298.272 50.9853 295.34 70.2548" stroke="#0F1319" stroke-linecap="round"/>
</svg>
