<svg width="164" height="117" viewBox="0 0 164 117" fill="none" xmlns="http://www.w3.org/2000/svg">
<path d="M18.6759 81.0323C6.45619 61.1775 20.4546 32.6953 41.5404 23.0888C62.9359 12.4728 86.9231 22.691 96.8534 42.1876C108.269 64.5992 97.2935 86.6716 75.9119 97.2807C54.1389 107.105 28.6794 101.194 18.6759 81.0323Z" fill="white"/>
<path d="M155.193 30.0315C151.702 12.8938 129.431 4.47704 112.96 10.03C95.8009 15.1891 87.9069 33.0848 92.4676 48.8523C97.7102 66.9774 115.038 73.4349 132.186 68.2792C149.146 62.4931 160.054 46.2005 155.193 30.0315Z" fill="white"/>
<path d="M90.6046 32.7565C56.5204 -1.43653 8.86893 33.7184 14.5223 71.0455" stroke="#0F1319" stroke-linecap="round"/>
<path d="M90.7725 40.4224C90.202 5.09305 136.314 -0.87747 152.361 22.4598C154.811 26.6071 158.526 37.7924 153.784 49.3554" stroke="#0F1319" stroke-linecap="round"/>
</svg>
