<svg width="311" height="218" viewBox="0 0 311 218" fill="none" xmlns="http://www.w3.org/2000/svg">
<path d="M258.593 41.0811C289.825 62.1822 288.189 113.465 263.533 141.668C239.093 171.565 196.951 172.501 169.33 150.402C137.579 124.998 139.034 85.1719 163.457 55.2947C188.98 26.3124 230.421 18.0516 258.593 41.0811Z" fill="white"/>
<path d="M87.4871 175.114C105.862 200.535 148.474 197.822 171.283 176.571C195.506 155.455 195.174 120.377 176.064 97.9851C154.097 72.2452 121.009 74.5051 96.8018 95.6075C73.3679 117.601 67.5892 152.288 87.4871 175.114Z" fill="white"/>
<path d="M27.3615 75.0984C10.7053 90.0746 15.8655 120.126 32.6861 134.708C49.5179 150.305 74.3995 147.407 88.8486 132.139C105.458 114.588 101.342 91.2652 84.5215 75.6784C67.1268 60.7083 42.0586 59.2376 27.3615 75.0984Z" fill="white"/>
<path d="M184.819 160.128C257.813 187.776 304.572 104.236 271.367 53.022" stroke="#0F1319" stroke-linecap="round"/>
<path d="M185.064 110.509C212.116 167.815 141.184 211.664 97.7105 185.395C90.6404 180.43 76.3 164.9 75.5 142.5" stroke="#0F1319" stroke-linecap="round"/>
<path d="M80.6393 139.48C42.0025 163.037 5.48477 116 20.8378 83.1379C23.8265 77.7409 33.7651 66.38 49.6095 64.112" stroke="#0F1319" stroke-linecap="round"/>
</svg>
