<svg width="289" height="252" viewBox="0 0 289 252" fill="none" xmlns="http://www.w3.org/2000/svg">
<path d="M62.3947 209.446C25.5362 188.013 23.4705 130.01 49.1456 96.2992C74.4471 60.6932 121.938 56.4217 154.797 79.2559C192.569 105.504 193.966 150.563 168.681 186.146C142.087 220.803 95.9464 233.287 62.3947 209.446Z" fill="white"/>
<path d="M245.279 45.122C222.602 17.8327 174.716 24.1453 150.595 49.87C124.868 75.5497 127.919 115.113 151.195 138.927C177.951 166.301 215.122 161.226 240.832 135.563C265.602 108.954 269.477 69.3649 245.279 45.122Z" fill="white"/>
<path d="M136.572 69.4603C52.082 43.8249 5.68346 141.676 47.0659 196.943" stroke="#0F1319" stroke-linecap="round"/>
<path d="M140.083 125.479C105.179 62.867 181.889 7.96799 232.957 34.2988C241.315 39.3627 258.685 55.7956 261.296 81.0154" stroke="#0F1319" stroke-linecap="round"/>
</svg>
