<svg width="231" height="172" viewBox="0 0 231 172" fill="none" xmlns="http://www.w3.org/2000/svg">
<path d="M14.2562 85.8097C3.93392 56.0432 30.7244 22.5531 61.3515 16.0384C92.6823 8.28211 121.346 28.7718 128.752 57.3968C137.266 90.3017 116.337 116.218 85.027 123.969C53.4294 130.571 21.565 115.333 14.2562 85.8097Z" fill="white"/>
<path d="M195.888 81.8728C196.332 55.658 166.464 36.1215 140.556 38.9109C113.769 40.9011 96.4154 64.5357 97.9807 89.0918C99.7801 117.319 123.05 132.387 149.819 130.398C176.517 127.425 197.763 107.114 195.888 81.8728Z" fill="white"/>
<path d="M192.501 167.808C214.075 167.819 229.743 142.981 227.098 121.704C225.098 99.6929 205.418 85.7357 185.237 87.3559C162.038 89.2183 149.957 108.566 151.955 130.563C154.762 152.487 171.76 169.692 192.501 167.808Z" fill="white"/>
<path d="M123.257 43.1299C88.2758 -11.9421 15.1339 20.5205 11.688 71.4218" stroke="#0F1319" stroke-linecap="round"/>
<path d="M98.2349 76.2039C108.849 24.3095 178.276 30.5149 194.199 69.8725C196.442 76.7368 198.254 94.3121 187.566 109.699" stroke="#0F1319" stroke-linecap="round"/>
<path d="M195.845 87.3925C238.683 95.4227 234.517 152.625 202.353 166.258C196.736 168.196 182.301 169.925 169.497 161.34" stroke="#0F1319" stroke-linecap="round"/>
</svg>
