<svg width="155" height="77" viewBox="0 0 155 77" fill="none" xmlns="http://www.w3.org/2000/svg">
<g clip-path="url(#clip0)">
<mask id="mask0" mask-type="alpha" maskUnits="userSpaceOnUse" x="0" y="0" width="331" height="77">
<path d="M330.812 0H0V77H330.812V0Z" fill="white"/>
</mask>
<g mask="url(#mask0)">
<mask id="mask1" mask-type="alpha" maskUnits="userSpaceOnUse" x="0" y="0" width="153" height="74">
<path d="M0 0.205078H152.12V73.3857H0V0.205078Z" fill="white"/>
</mask>
<g mask="url(#mask1)">
<path fill-rule="evenodd" clip-rule="evenodd" d="M103.068 61.9091C103.642 61.9091 103.845 62.0366 103.845 62.6943V66.2581C103.845 66.908 103.642 67.0715 103.068 67.0715H102.668V61.9091H103.068ZM144.248 65.3572C144.822 65.3572 144.998 65.5007 144.998 66.1347V67.4741C144.998 68.1035 144.822 68.2511 144.248 68.2511H143.674V65.3572H144.248ZM98.9799 62.7179C98.9799 62.0721 99.1918 61.9091 99.756 61.9091H100.168V67.0715H99.756C99.1918 67.0715 98.9799 66.9198 98.9799 66.2699V62.7179ZM50.7073 73.3857H152.12V56.36H50.7073V73.3857ZM61.7189 59.1227H59.1458V63.3997H57.8232V59.1227H55.2521V70.2086H57.8232V65.3572H59.1458V70.2086H61.7189V59.1227ZM83.0354 59.1145H76.8658V70.2168H83.0354V68.1117H79.5181V65.5007H82.6652V63.3997H79.5181V61.2155H83.0354V59.1145ZM106.337 62.794C106.337 60.5295 105.243 59.9557 102.668 59.9557V59.1227H100.168V59.9557C97.5868 59.9557 96.4838 60.5295 96.4838 62.794V66.2581C96.4838 68.5066 97.6338 69.1123 100.168 69.1123V70.2086H102.668V69.1123C105.202 69.1123 106.337 68.5066 106.337 66.2581V62.794ZM126.112 59.1145H119.638V61.2155H121.726V70.2168H124.17V61.2155H126.112V59.1145ZM147.565 66.2103C147.565 63.9936 146.631 63.3997 144.107 63.3997H143.674V59.1227H141.102V70.2086H143.674C146.469 70.2086 147.565 69.7782 147.565 67.3507V66.2103ZM43.9239 47.8533V65.3212C39.2959 70.2765 32.71 73.3857 25.396 73.3857C11.3757 73.3857 0 61.9806 0 47.917C0 33.8612 11.3757 22.4565 25.396 22.4565V41.6028C21.748 41.6028 18.0979 42.9978 15.3148 45.7883C14.65 46.4501 14.0678 47.1637 13.5633 47.917C9.82793 53.478 10.408 61.092 15.3148 66.0108C18.0979 68.7935 21.748 70.1968 25.396 70.1968C29.0262 70.1968 32.661 68.8136 35.442 66.0426C35.4558 66.0267 35.4701 66.019 35.4854 66.0072V65.9989L35.5212 65.9712C38.3103 63.1766 38.3103 58.6363 35.5212 55.8499C32.732 53.0512 28.2169 53.0512 25.4297 55.8499C25.4119 55.8576 25.4042 55.8658 25.396 55.8777V47.8533H43.9239ZM40.765 13.4074C42.2969 20.1885 42.2689 24.358 41.604 29.1137C40.3984 37.6765 36.5363 44.2216 34.864 46.4182C33.7155 44.927 31.9584 41.8856 30.7864 39.0478C30.7864 39.0478 28.5692 33.6463 27.9835 28.3841C27.3973 23.1183 27.649 17.7687 29.3571 11.745C30.9228 6.33213 33.9948 1.46844 34.8364 0.205078C35.3644 1.10182 39.2264 6.62316 40.765 13.4074ZM34.8364 44.7322C35.6202 43.2688 36.9663 40.0602 36.8473 35.9822C36.6834 31.8204 35.2858 28.7708 34.864 28.0411C34.3829 28.7708 32.7637 32.2667 32.7912 36.353C32.9066 40.5662 34.0822 43.3012 34.8364 44.7322ZM40.3212 24.92C40.3687 22.3326 40.1211 17.9358 38.8664 13.3477C37.6077 8.75961 35.1668 4.39468 34.8068 3.82804C34.4483 4.39468 32.516 7.93845 30.8099 13.487C30.3606 15.1494 29.5512 18.7575 29.4108 22.273C29.2463 26.5382 29.8203 30.7679 30.0521 31.9639C30.0521 30.5529 30.0797 25.8486 30.9468 21.966C31.8154 18.0751 33.4663 13.5986 34.8068 11.3228C36.2616 13.7184 38.0846 18.8886 38.7219 21.9902C39.3694 25.0912 39.7054 29.0577 39.567 31.8682C39.9551 30.2377 40.262 27.5069 40.3212 24.92ZM145.784 22.3249H152.12V47.8574H147.243V31.844H147.074L144.564 47.8574H140.669L138.165 31.844H137.998V47.8574H133.119V22.3249H139.446L142.604 40.2675L145.784 22.3249ZM110.975 36.3648C111.506 36.3648 111.884 35.8943 111.884 35.0891V26.7695C111.884 25.9684 111.506 25.4944 110.975 25.4944H109.693V36.3648H110.975ZM104.825 22.3249H112.476C115.888 22.3249 116.429 25.0995 116.429 26.8852V34.6109C116.429 36.4044 115.888 39.1789 112.476 39.1789H109.693V47.8574H104.825V22.3249ZM90.0287 22.3249H101.3V47.8574H96.755V25.4944H94.5699V47.8574H90.0287V22.3249ZM80.4265 38.9162V43.7197C80.4265 44.3815 80.906 44.5645 81.1889 44.5645C81.6362 44.5645 81.9487 44.1619 81.9487 43.7197V37.7839C81.9487 36.9864 81.8139 36.1097 80.0011 36.1097H78.0219V33.3033H80.0706C81.4616 33.3033 81.9487 32.9645 81.9487 31.4096V26.3309C81.9487 25.8928 81.6362 25.4944 81.1889 25.4944C80.906 25.4944 80.4265 25.6774 80.4265 26.3309V30.4928H75.5473V26.8852C75.5473 25.0995 75.7633 22.3249 79.1677 22.3249H83.2075C86.6161 22.3249 86.8264 25.0995 86.8264 26.8852V30.9751C86.8264 33.7419 84.9774 34.5029 83.5144 34.4314V34.6901C86.7846 34.6109 86.8264 37.2415 86.8264 38.1547V43.2929C86.8264 45.0828 86.6161 47.8574 83.2075 47.8574H79.1677C75.7633 47.8574 75.5473 45.0828 75.5473 43.2929V38.9162H80.4265ZM68.053 38.2621L67.2176 25.4944H66.9485L66.1054 38.2621H68.053ZM63.255 22.3249H70.9096L73.451 47.8574H68.6847L68.2333 41.0686H65.9374L65.4763 47.8574H60.7196L63.255 22.3249ZM50.7073 22.3249H60.0011V25.4944H55.5769V47.8574H50.7073V22.3249ZM126.619 22.3249C130.031 22.3249 130.245 25.0995 130.245 26.8852V43.2929C130.245 45.0828 130.031 47.8574 126.619 47.8574H122.589C119.182 47.8574 118.976 45.0828 118.976 43.2929V26.8852C118.976 25.0995 119.182 22.3249 122.589 22.3249H126.619ZM124.61 44.7003C125.198 44.7003 125.686 44.2457 125.686 43.6837L125.685 43.6518V26.5381V26.4626L125.677 26.3829C125.625 25.8846 125.162 25.4861 124.602 25.4861C124.043 25.4861 123.596 25.8846 123.531 26.3829V26.4626V26.5381V43.6518L123.523 43.6837C123.523 44.2457 124.01 44.7003 124.61 44.7003Z" fill="#0F1319"/>
</g>
</g>
</g>
<defs>
<clipPath id="clip0">
<rect width="155" height="77" fill="white"/>
</clipPath>
</defs>
</svg>
