<svg width="33" height="34" viewBox="0 0 33 34" fill="none" xmlns="http://www.w3.org/2000/svg">
<path d="M0.990234 8.24645V25.8582C0.990234 29.3161 3.7934 32.1193 7.25134 32.1193H24.8631C28.321 32.1193 31.1242 29.3161 31.1242 25.8582V8.24645C31.1242 4.78852 28.321 1.98535 24.8631 1.98535H7.25134C3.7934 1.98535 0.990234 4.78852 0.990234 8.24645ZM19.2492 25.5904C11.8167 28.1548 4.95469 21.2928 7.51913 13.8603C8.3832 11.3553 10.36 9.37832 12.865 8.51425C20.2977 5.94981 27.1597 12.8118 24.5953 20.2445C23.7312 22.7495 21.7544 24.7263 19.2492 25.5904ZM26.5134 7.94041C26.3951 8.55968 25.8827 8.91998 25.3527 8.91998C25.0301 8.91998 24.7012 8.78682 24.4494 8.49788C24.4272 8.47231 24.4064 8.44491 24.388 8.4164C24.1281 8.01913 24.12 7.54718 24.3409 7.16444C24.4972 6.89352 24.7496 6.70003 25.0518 6.6191C25.3536 6.53781 25.6692 6.57956 25.9397 6.73608C26.3227 6.95679 26.5515 7.36969 26.5254 7.84311C26.5235 7.87548 26.5197 7.9084 26.5134 7.94041Z" fill="#8C8C8C"/>
<path d="M16.0568 9.73828C12.0201 9.73828 8.73633 13.022 8.73633 17.0588C8.73633 21.0955 12.0201 24.3793 16.0568 24.3793C20.0936 24.3793 23.3773 21.0955 23.3773 17.0588C23.3773 13.022 20.0936 9.73828 16.0568 9.73828Z" fill="#8C8C8C"/>
</svg>
