<svg width="92" height="23" viewBox="0 0 92 23" fill="none" xmlns="http://www.w3.org/2000/svg">
<path d="M13.3074 6.35939C13.1504 6.35939 13.0326 6.32013 12.9934 6.28087L8.43945 3.65059L13.2289 0.863281C13.2289 0.863281 13.2682 0.863281 13.3467 0.863281C13.4252 0.863281 13.4645 0.863281 13.4645 0.863281L18.2539 3.65059L13.7 6.28087C13.6608 6.32013 13.543 6.35939 13.386 6.35939H13.3074Z" fill="white"/>
<path d="M13.3084 1.84512L16.449 3.65099L13.3084 5.45685L10.1678 3.65099L13.3084 1.84512ZM13.3084 0C13.1121 0 12.9158 0.0392579 12.7588 0.117774L6.67383 3.65099V3.69024L12.5233 7.06642C12.7195 7.1842 12.9943 7.26271 13.2692 7.26271H13.3084H13.3477C13.6225 7.26271 13.8973 7.1842 14.0936 7.06642L19.943 3.69024V3.65099L13.858 0.117774C13.7402 0.0392579 13.5047 0 13.3084 0Z" fill="white"/>
<path d="M13.3078 21.8399C13.1116 21.8399 12.9938 21.8006 12.9545 21.7614L1.17715 14.9305C1.05938 14.852 0.902344 14.5772 0.902344 14.3416V5.74414L12.1694 12.261C12.4834 12.4572 12.876 12.5358 13.3078 12.575H13.3471C13.7789 12.575 14.1715 12.4572 14.4856 12.261L25.7526 5.74414V14.3416C25.7526 14.5772 25.5956 14.852 25.4778 14.9305L13.7004 21.8006C13.6612 21.8399 13.5434 21.8791 13.3864 21.8791C13.3471 21.8399 13.3078 21.8399 13.3078 21.8399Z" fill="white"/>
<path d="M1.76661 7.27559L11.7381 13.0465C12.1699 13.3213 12.7196 13.4391 13.2692 13.4783H13.3084H13.3477C13.8973 13.4783 14.4469 13.3213 14.8787 13.0465L24.8503 7.27559V14.2635L13.3477 20.9766H13.3084L1.80587 14.2635V7.27559H1.76661ZM0.0392603 3.89941C2.39553e-06 3.89941 0 3.89941 0 3.93867V14.342C0 14.8524 0.274801 15.4412 0.706638 15.6768L12.484 22.5077C12.6803 22.6254 12.9944 22.704 13.2692 22.704H13.3084H13.3477C13.6225 22.704 13.8973 22.6254 14.1328 22.5077L25.9102 15.6768C26.3421 15.4412 26.6169 14.8131 26.6169 14.342V3.97793C26.6169 3.93867 26.6169 3.93867 26.5776 3.93867C26.5776 3.93867 26.5383 3.93867 26.5383 3.97793C26.4206 4.37051 26.1458 4.52754 25.8317 4.68457L14.0151 11.5154C13.8188 11.6332 13.544 11.6725 13.3084 11.7117C13.0336 11.7117 12.7981 11.6332 12.6018 11.5154L0.785158 4.68457C0.510353 4.48828 0.23555 4.33125 0.0392603 3.89941C0.0785182 3.93867 0.0785182 3.93867 0.0392603 3.89941C0.0785182 3.93867 0.0785182 3.93867 0.0392603 3.89941C0.0785182 3.93867 0.0785182 3.93867 0.0392603 3.89941C0.0785182 3.93867 0.0785182 3.89941 0.0392603 3.89941Z" fill="white"/>
<path d="M43.1453 5.80958H38.0418L37.4137 11.1094C37.2174 12.5619 36.9818 13.8182 36.6678 14.8389C36.3537 15.8596 35.9611 16.7233 35.4508 17.3514C34.9404 18.0188 34.3908 18.4899 33.6842 18.7647C33.0168 19.0395 32.2316 19.1965 31.3287 19.1965H30.8184V17.0766H31.1324C31.6428 17.0766 32.1139 16.9981 32.5064 16.7625C32.899 16.5662 33.2916 16.2129 33.6057 15.7026C33.9197 15.1922 34.1945 14.4856 34.4301 13.5826C34.6656 12.6797 34.8619 11.5412 35.0189 10.1279L35.7649 3.65039H45.6971V19.0395H43.1453V5.80958Z" fill="white"/>
<path d="M60.6531 19.0785H58.2192V7.45821L50.3676 19.0393H47.9336V3.68945H50.3283V15.3098L58.1799 3.68945H60.6139V19.0785H60.6531Z" fill="white"/>
<path d="M75.6118 19.0785H73.217V7.45821L65.3654 19.0393H62.9707V3.68945H65.3654V15.3098L73.217 3.68945H75.651V19.0785H75.6118Z" fill="white"/>
<path d="M91.0016 13.936C90.7268 15.7026 90.0594 17.0766 88.9994 18.058C87.9002 19.0395 86.4084 19.5498 84.4455 19.5498C83.2678 19.5498 82.2471 19.3536 81.3834 19.0002C80.4805 18.6469 79.7346 18.0973 79.1457 17.3907C78.5569 16.684 78.0857 15.8203 77.8109 14.8389C77.4969 13.8574 77.3398 12.719 77.3398 11.4627C77.3398 10.2457 77.4969 9.10724 77.8502 8.08653C78.1643 7.06583 78.6746 6.20216 79.3027 5.49551C79.9309 4.78887 80.6768 4.23926 81.5797 3.84668C82.4826 3.4541 83.5033 3.25781 84.6418 3.25781C86.4477 3.25781 87.861 3.68965 88.8817 4.59258C89.8631 5.49551 90.5305 6.71251 90.8053 8.28282L88.2536 8.75392C88.1358 8.28282 88.018 7.81173 87.861 7.37989C87.704 6.98731 87.4684 6.59473 87.1543 6.31993C86.8403 6.00587 86.487 5.77032 86.0944 5.61329C85.6625 5.45626 85.1522 5.37774 84.5633 5.37774C83.7389 5.37774 83.0715 5.53477 82.5219 5.84883C81.933 6.1629 81.5012 6.59473 81.1086 7.14435C80.7553 7.69396 80.4805 8.32208 80.3235 9.06798C80.1664 9.81388 80.0879 10.599 80.0879 11.4235C80.0879 12.2871 80.1664 13.0723 80.3235 13.8182C80.4805 14.5641 80.716 15.1922 81.1086 15.7418C81.4619 16.2914 81.933 16.7233 82.4826 17.0373C83.0323 17.3514 83.7389 17.5084 84.5633 17.5084C85.8196 17.5084 86.7225 17.1944 87.3114 16.5662C87.9002 15.9381 88.2928 15.0744 88.4891 14.0145H91.0016V13.936Z" fill="white"/>
</svg>
