<svg width="75" height="36" viewBox="0 0 75 36" fill="none" xmlns="http://www.w3.org/2000/svg">
<path d="M2.60564 10.9243C2.71955 11.9162 3.07551 12.6388 3.67353 13.0922C4.28578 13.5456 5.18993 13.7723 6.38596 13.7723C6.96974 13.7723 7.46097 13.7085 7.85964 13.581C8.25832 13.4535 8.57869 13.2835 8.82074 13.0709C9.0628 12.8584 9.23366 12.6104 9.33333 12.3271C9.433 12.0295 9.48283 11.7178 9.48283 11.3919C9.48283 11.151 9.44724 10.9172 9.37604 10.6905C9.30485 10.4497 9.1767 10.23 8.9916 10.0317C8.8065 9.83331 8.55733 9.66328 8.24408 9.52159C7.93084 9.36573 7.53216 9.24529 7.04805 9.16028L5.1045 8.79897C4.33562 8.65728 3.65217 8.48016 3.05416 8.26763C2.45614 8.05509 1.95067 7.7788 1.53776 7.43874C1.13908 7.08451 0.832952 6.65944 0.619374 6.16353C0.420035 5.65344 0.320366 5.03709 0.320366 4.31447C0.320366 3.59185 0.462751 2.96133 0.747521 2.4229C1.04653 1.88448 1.45233 1.43816 1.96491 1.08393C2.4775 0.715536 3.08263 0.446325 3.78032 0.276296C4.49224 0.0920988 5.26112 0 6.08695 0C7.1406 0 8.02339 0.120437 8.73531 0.361311C9.44724 0.602184 10.0239 0.920988 10.4653 1.31772C10.9067 1.70028 11.2413 2.14661 11.4691 2.65669C11.6969 3.16678 11.8535 3.69812 11.939 4.25071L9.50419 4.63327C9.30485 3.78313 8.95601 3.15261 8.45766 2.74171C7.97355 2.33081 7.19755 2.12535 6.12967 2.12535C5.51741 2.12535 5.00483 2.18203 4.59191 2.29538C4.19323 2.39457 3.86575 2.54334 3.60946 2.74171C3.3674 2.9259 3.18942 3.14552 3.07551 3.40057C2.97584 3.64144 2.92601 3.89648 2.92601 4.1657C2.92601 4.83164 3.10399 5.32756 3.45995 5.65344C3.83015 5.97933 4.47088 6.23437 5.38215 6.41857L7.49656 6.82239C9.10551 7.11994 10.2873 7.63002 11.0419 8.35264C11.7966 9.06109 12.1739 10.0883 12.1739 11.4344C12.1739 12.072 12.0529 12.6671 11.8108 13.2197C11.583 13.7581 11.227 14.2328 10.7429 14.6437C10.2588 15.0404 9.65369 15.3521 8.92753 15.5788C8.21561 15.8197 7.38266 15.9402 6.42868 15.9402C4.478 15.9402 2.94737 15.5363 1.83676 14.7287C0.726163 13.9069 0.113908 12.6388 0 10.9243H2.60564Z" fill="#212121"/>
<path d="M14.4868 0.382564H17.0711V15.5576H14.4868V0.382564Z" fill="#212121"/>
<path d="M20.1295 0.382564H23.269L27.6047 12.4546L32.0684 0.382564H35.1012V15.5576H32.7305V4.527L28.5444 15.5576H26.4941L22.4574 4.54826V15.5576H20.1295V0.382564Z" fill="#212121"/>
<path d="M38.1613 0.382564H43.4366C44.59 0.382564 45.5368 0.510085 46.2772 0.765128C47.0319 1.02017 47.6228 1.36023 48.0499 1.7853C48.4771 2.21037 48.7761 2.70628 48.9469 3.27305C49.1178 3.82564 49.2032 4.40657 49.2032 5.01584C49.2032 5.66761 49.1178 6.29105 48.9469 6.88615C48.7761 7.48125 48.4699 8.0055 48.0285 8.45891C47.6014 8.89815 47.0176 9.25238 46.2772 9.52159C45.5368 9.77663 44.6042 9.90415 43.4794 9.90415H40.7029V15.5576H38.1613V0.382564ZM43.4153 7.75754C44.0703 7.75754 44.6042 7.69378 45.0171 7.56626C45.4443 7.43874 45.7789 7.26163 46.0209 7.03492C46.263 6.79405 46.4267 6.51067 46.5122 6.18478C46.6118 5.85889 46.6617 5.4905 46.6617 5.0796C46.6617 4.65453 46.6118 4.28613 46.5122 3.97441C46.4125 3.64853 46.2345 3.37931 45.9782 3.16678C45.7362 2.95424 45.4016 2.7913 44.9744 2.67795C44.5615 2.56459 44.0347 2.50792 43.3939 2.50792H40.7029V7.75754H43.4153Z" fill="#212121"/>
<path d="M54.0845 0.382564V13.326H61.6452L61.3248 15.5576H51.5002V0.382564H54.0845Z" fill="#212121"/>
<path d="M63.5669 0.382564H73.7118V2.59293H66.1512V6.63111H73.2847V8.86273H66.1512V13.3472H74.1176L73.8186 15.5576H63.5669V0.382564Z" fill="#212121"/>
<path d="M7.20757 35.9951C6.11121 35.9951 5.12163 35.818 4.23885 35.4638C3.3703 35.0954 2.62278 34.5711 1.99629 33.891C1.36979 33.2109 0.885686 32.382 0.543962 31.4043C0.216477 30.4125 0.0527344 29.2931 0.0527344 28.0463C0.0527344 26.7994 0.223596 25.68 0.56532 24.6882C0.907043 23.6964 1.39115 22.8604 2.01764 22.1803C2.64414 21.486 3.39878 20.9617 4.28156 20.6075C5.16435 20.2391 6.13969 20.0549 7.20757 20.0549C8.2897 20.0549 9.27215 20.2391 10.1549 20.6075C11.0377 20.9617 11.7852 21.4789 12.3975 22.159C13.0098 22.8391 13.4796 23.6751 13.8071 24.667C14.1488 25.6446 14.3197 26.7569 14.3197 28.0038C14.3197 29.2648 14.156 30.3912 13.8285 31.3831C13.501 32.3607 13.0311 33.1967 12.4189 33.891C11.8066 34.5711 11.0591 35.0954 10.1763 35.4638C9.30775 35.818 8.31817 35.9951 7.20757 35.9951ZM7.18621 33.7847C8.65278 33.7847 9.76338 33.2746 10.518 32.2545C11.2727 31.2201 11.65 29.8103 11.65 28.025C11.65 27.1324 11.5503 26.3318 11.351 25.6234C11.1659 24.9149 10.8882 24.3127 10.518 23.8168C10.1478 23.3209 9.68507 22.9383 9.12977 22.6691C8.57447 22.3999 7.92661 22.2653 7.18621 22.2653C6.44581 22.2653 5.79796 22.3999 5.24266 22.6691C4.68736 22.9383 4.21749 23.3209 3.83305 23.8168C3.46285 24.3127 3.1852 24.9149 3.0001 25.6234C2.815 26.3318 2.72245 27.1324 2.72245 28.025C2.72245 29.8103 3.09265 31.2201 3.83305 32.2545C4.58769 33.2746 5.70541 33.7847 7.18621 33.7847Z" fill="#3DBBEE"/>
<path d="M26.9789 20.4375V22.6479H19.8241V26.9411H26.5518V29.1727H19.8241V35.6125H17.2398V20.4375H26.9789Z" fill="#3DBBEE"/>
<path d="M39.4194 20.4375V22.6479H32.2646V26.9411H38.9922V29.1727H32.2646V35.6125H29.6803V20.4375H39.4194Z" fill="#3DBBEE"/>
<path d="M42.1207 20.4375H44.705V35.6125H42.1207V20.4375Z" fill="#3DBBEE"/>
<path d="M60.8883 30.4904C60.8028 31.2839 60.6106 32.0136 60.3116 32.6795C60.0126 33.3455 59.5997 33.9264 59.0729 34.4223C58.5461 34.9182 57.9053 35.3079 57.1507 35.5913C56.396 35.8605 55.5204 35.9951 54.5237 35.9951C53.4273 35.9951 52.4449 35.8109 51.5763 35.4425C50.722 35.0741 49.9958 34.5499 49.3978 33.8697C48.814 33.1755 48.3655 32.3395 48.0523 31.3618C47.7533 30.37 47.6038 29.2648 47.6038 28.0463C47.6038 26.7994 47.7675 25.68 48.095 24.6882C48.4367 23.6964 48.9137 22.8604 49.526 22.1803C50.1382 21.486 50.8715 20.9617 51.7258 20.6075C52.5801 20.2391 53.5199 20.0549 54.545 20.0549C55.499 20.0549 56.3248 20.1754 57.0225 20.4162C57.7202 20.6571 58.3111 21.0043 58.7952 21.4577C59.2936 21.8969 59.6851 22.4282 59.9699 23.0517C60.2689 23.6751 60.4896 24.3694 60.632 25.1345L58.0904 25.4958C57.9765 24.9858 57.8341 24.5323 57.6633 24.1356C57.4924 23.7389 57.2646 23.4059 56.9798 23.1367C56.7093 22.8533 56.3747 22.6408 55.976 22.4991C55.5773 22.3432 55.1003 22.2653 54.545 22.2653C53.8616 22.2653 53.2565 22.3999 52.7296 22.6691C52.2028 22.9383 51.7543 23.328 51.3841 23.8381C51.0281 24.334 50.7576 24.9362 50.5725 25.6446C50.3874 26.3531 50.2948 27.1465 50.2948 28.025C50.2948 28.9177 50.3874 29.7182 50.5725 30.4267C50.7718 31.1351 51.0566 31.7444 51.4268 32.2545C51.797 32.7504 52.2384 33.1329 52.751 33.4022C53.2778 33.6572 53.8758 33.7847 54.545 33.7847C55.1431 33.7847 55.6485 33.7068 56.0614 33.5509C56.4886 33.3951 56.8446 33.1755 57.1293 32.8921C57.4141 32.6087 57.6348 32.2686 57.7914 31.8719C57.9623 31.461 58.0833 31.0005 58.1545 30.4904H60.8883Z" fill="#3DBBEE"/>
<path d="M63.4977 20.4375H73.6426V22.6479H66.082V26.686H73.2155V28.9177H66.082V33.4022H74.0484L73.7494 35.6125H63.4977V20.4375Z" fill="#3DBBEE"/>
</svg>
