<svg width="183" height="52" viewBox="0 0 183 52" fill="none" xmlns="http://www.w3.org/2000/svg">
<path fill-rule="evenodd" clip-rule="evenodd" d="M68.5315 2.09998V17.3L54.1112 2.09998H51.6249V26.2H56.5974V11L71.0177 26.2H73.504V2.09998H68.5315ZM83.0513 21.6V16H89.615C91.2062 16 92.5985 17.1 92.5985 18.8C92.5985 20.6 91.0073 21.6 89.615 21.6H83.0513ZM87.7254 6.5C89.3167 6.5 90.709 7.49998 90.709 9.09998C90.709 10.7 89.4161 11.6 88.0238 11.7H83.0513V6.39999H87.7254V6.5ZM95.2837 9.29999C95.2837 4.89999 92.1013 2.09998 88.0238 2.09998H78.0787V26.2H90.3112C94.3886 26.2 97.5709 23.4 97.5709 19C97.5709 16.3 95.9798 14.4 93.7919 13.2C94.687 12 95.2837 10.7 95.2837 9.29999ZM119.351 16.2C118.456 19.5 115.87 21.6 112.489 21.6C108.312 21.6 105.527 18.1 105.527 14.1C105.527 9.89998 108.411 6.59998 112.489 6.59998C115.87 6.59998 118.456 8.8 119.351 12L124.124 10.5C122.533 5.2 117.76 2 112.489 2C105.527 2 100.256 7.29998 100.256 14.1C100.256 21 105.825 26.2 112.489 26.2C117.958 26.2 122.633 22.8 124.124 17.7L119.351 16.2ZM131.882 14.1C131.882 9.99998 134.467 6.59998 138.942 6.59998C142.921 6.59998 145.904 9.59998 145.904 14.1C145.904 18.2 143.318 21.6 138.942 21.6C134.666 21.6 131.882 18.2 131.882 14.1ZM126.71 14.1C126.71 20.7 131.683 26.2 138.942 26.2C145.606 26.2 151.175 21.3 151.175 14.1C151.175 7.49998 146.302 2 138.942 2C132.08 2.1 126.71 7.29998 126.71 14.1ZM178.126 2.09998L167.684 14.2L157.142 2.09998H154.656V26.2H159.628V11.2L167.584 20.4L175.54 11.2V26.2H180.513V2.09998H178.126ZM58.8848 39.3V42.5H63.7579C63.7579 42.6 63.7579 42.8 63.6584 42.9C63.1612 45.3 61.371 46.9 58.8848 46.9C55.9013 46.9 54.0117 44.5 54.0117 41.6C54.0117 38.6 56.0007 36.3 58.8848 36.3C59.9787 36.3 60.9732 36.6 61.7688 37.2L63.8573 34.6C62.3656 33.6 60.7743 33.1 58.8848 33.1C54.0117 33.1 50.332 36.8 50.332 41.6C50.332 46.5 54.2106 50 58.8848 50C63.7579 50 67.4375 46.3 67.4375 41.6C67.4375 40.8 67.3381 40 67.1392 39.2H58.8848V39.3ZM84.7419 36.5H89.3167C90.4106 36.5 91.4051 37.2 91.4051 38.3C91.4051 39.5 90.3112 40.1 89.3167 40.1H84.7419V36.5ZM95.7809 50.1L91.604 42.9C93.7919 42.1 94.8859 40.5 94.8859 38.3C94.8859 35.2 92.5985 33.3 89.8139 33.3H81.2612V50.2H84.7419V43.3H87.8249L91.8029 50.2H95.7809V50.1ZM112.787 41.7C112.787 38.9 114.577 36.4 117.66 36.4C120.445 36.4 122.533 38.5 122.533 41.7C122.533 44.5 120.743 47 117.66 47C114.677 46.9 112.787 44.5 112.787 41.7ZM109.107 41.7C109.107 46.3 112.588 50.1 117.66 50.1C122.334 50.1 126.213 46.7 126.213 41.7C126.213 37.1 122.732 33.3 117.66 33.3C112.886 33.2 109.107 36.9 109.107 41.7ZM150.976 33.2V42.2C150.976 44.6 149.683 46.8 147.197 46.8C144.512 46.8 143.418 44.4 143.418 42.2V33.2H139.937V42.4C139.937 46.8 142.821 50.1 147.197 50.1C151.672 50.1 154.457 46.7 154.457 42.4V33.2H150.976ZM172.258 40.1V36.5H176.833C177.927 36.5 178.922 37.2 178.922 38.3C178.922 39.5 177.828 40.1 176.833 40.1H172.258ZM168.678 33.2V50.1H172.159V43.2H177.231C180.115 43.2 182.303 41.1 182.303 38.2C182.303 35.1 180.016 33.2 177.231 33.2H168.678Z" fill="#0F1319"/>
<path fill-rule="evenodd" clip-rule="evenodd" d="M2.99466 2H12.1441C12.6414 2 13.0392 2.39999 13.0392 2.89999V21.8C13.0392 22.3 12.6414 22.7 12.1441 22.7H2.99466C2.49741 22.7 2.09961 22.3 2.09961 21.8V3C2.09961 2.4 2.49741 2 2.99466 2Z" fill="#0F1319"/>
<path fill-rule="evenodd" clip-rule="evenodd" d="M15.9227 2H41.4815C41.8793 2 42.1777 2.29998 42.1777 2.69998V22C42.1777 22.4 41.8793 22.7 41.4815 22.7H15.9227C15.5249 22.7 15.2266 22.4 15.2266 22V2.69998C15.2266 2.29998 15.5249 2 15.9227 2Z" fill="#0F1319"/>
<path fill-rule="evenodd" clip-rule="evenodd" d="M2.99466 24.7002H41.2831C41.7804 24.7002 42.1782 25.1002 42.1782 25.6002V44.5002C42.1782 45.0002 41.7804 45.4002 41.2831 45.4002H2.99466C2.4974 45.4002 2.09961 45.0002 2.09961 44.5002V25.6002C2.09961 25.1002 2.4974 24.7002 2.99466 24.7002Z" fill="#0F1319"/>
<path fill-rule="evenodd" clip-rule="evenodd" d="M2.99466 50.0996H41.3826C41.8798 50.0996 42.2777 49.6996 42.2777 49.1996V47.9996C42.2777 47.4996 41.8798 47.0996 41.3826 47.0996H2.99466C2.4974 47.0996 2.09961 47.4996 2.09961 47.9996V49.1996C2.09961 49.6996 2.4974 50.0996 2.99466 50.0996Z" fill="#0F1319"/>
</svg>
