<svg width="53" height="53" viewBox="0 0 53 53" fill="none" xmlns="http://www.w3.org/2000/svg">
<rect width="53" height="53" rx="10.6122" fill="#66D1FC"/>
<g clip-path="url(#clip0)">
<path d="M28.2305 29.5146C28.6878 29.5146 29.0586 29.1439 29.0586 28.6865C29.0586 28.2292 28.6878 27.8584 28.2305 27.8584C27.7731 27.8584 27.4023 28.2292 27.4023 28.6865C27.4023 29.1439 27.7731 29.5146 28.2305 29.5146Z" fill="white"/>
<path d="M32.8092 28.3802L28.2627 32.9166C28.1661 33.013 28.0949 33.1317 28.0552 33.2622L27.0651 36.5219C26.9773 36.8109 27.0538 37.1247 27.2647 37.3409C27.4227 37.5028 27.6373 37.5907 27.8575 37.5907C27.9312 37.5907 28.0055 37.5808 28.0785 37.5606L31.421 36.6347C31.5586 36.5966 31.684 36.5236 31.785 36.4228L36.322 31.8943C37.2906 30.9256 37.2906 29.3495 36.322 28.3808C35.3534 27.4122 33.7773 27.4122 32.8092 28.3802ZM30.7691 35.0967L29.0876 35.5625L29.5797 33.9424L32.6474 30.8814L33.8187 32.0528L30.7691 35.0967ZM35.1515 30.7226L34.991 30.8827L33.8199 29.7115L33.9798 29.552C34.3027 29.2291 34.828 29.2291 35.1509 29.552C35.4737 29.8749 35.4737 30.4002 35.1515 30.7226Z" fill="white"/>
<path d="M24.627 33.1191C25.0843 33.1191 25.4551 32.7484 25.4551 32.291C25.4551 31.8337 25.0843 31.4629 24.627 31.4629C24.1696 31.4629 23.7988 31.8337 23.7988 32.291C23.7988 32.7484 24.1696 33.1191 24.627 33.1191Z" fill="white"/>
<path d="M24.627 29.5146C25.0843 29.5146 25.4551 29.1439 25.4551 28.6865C25.4551 28.2292 25.0843 27.8584 24.627 27.8584C24.1696 27.8584 23.7988 28.2292 23.7988 28.6865C23.7988 29.1439 24.1696 29.5146 24.627 29.5146Z" fill="white"/>
<path d="M24.627 25.9141C25.0843 25.9141 25.4551 25.5433 25.4551 25.0859C25.4551 24.6286 25.0843 24.2578 24.627 24.2578C24.1696 24.2578 23.7988 24.6286 23.7988 25.0859C23.7988 25.5433 24.1696 25.9141 24.627 25.9141Z" fill="white"/>
<path d="M21.0254 29.5146C21.4828 29.5146 21.8535 29.1439 21.8535 28.6865C21.8535 28.2292 21.4828 27.8584 21.0254 27.8584C20.568 27.8584 20.1973 28.2292 20.1973 28.6865C20.1973 29.1439 20.568 29.5146 21.0254 29.5146Z" fill="white"/>
<path d="M21.0254 33.1191C21.4828 33.1191 21.8535 32.7484 21.8535 32.291C21.8535 31.8337 21.4828 31.4629 21.0254 31.4629C20.568 31.4629 20.1973 31.8337 20.1973 32.291C20.1973 32.7484 20.568 33.1191 21.0254 33.1191Z" fill="white"/>
<path d="M21.0254 25.9141C21.4828 25.9141 21.8535 25.5433 21.8535 25.0859C21.8535 24.6286 21.4828 24.2578 21.0254 24.2578C20.568 24.2578 20.1973 24.6286 20.1973 25.0859C20.1973 25.5433 20.568 25.9141 21.0254 25.9141Z" fill="white"/>
<path d="M31.832 25.9141C32.2894 25.9141 32.6602 25.5433 32.6602 25.0859C32.6602 24.6286 32.2894 24.2578 31.832 24.2578C31.3747 24.2578 31.0039 24.6286 31.0039 25.0859C31.0039 25.5433 31.3747 25.9141 31.832 25.9141Z" fill="white"/>
<path d="M33.7351 18.0469H32.6586V17.2187C32.6586 16.7614 32.2878 16.3906 31.8304 16.3906C31.3731 16.3906 31.0023 16.7614 31.0023 17.2187V18.0469L27.2344 18.0469V17.2187C27.2344 16.7614 26.8636 16.3906 26.4062 16.3906C25.9489 16.3906 25.5781 16.7614 25.5781 17.2187V18.0469H21.8516V17.2187C21.8516 16.7614 21.4808 16.3906 21.0234 16.3906C20.5661 16.3906 20.1953 16.7614 20.1953 17.2187V18.0469H19.1602C17.3336 18.0469 15.8477 19.5329 15.8477 21.3594L15.8477 34.2781C15.8477 36.1046 17.3336 37.5906 19.1602 37.5906H24.2117C24.6691 37.5906 25.0398 37.2198 25.0398 36.7625C25.0398 36.3051 24.6691 35.9343 24.2117 35.9343H19.1602C18.2469 35.9343 17.5039 35.1914 17.5039 34.2781L17.5039 21.3594C17.5039 20.4461 18.2469 19.7031 19.1602 19.7031H20.1953V20.5312C20.1953 20.9886 20.5661 21.3594 21.0234 21.3594C21.4808 21.3594 21.8516 20.9886 21.8516 20.5312V19.7031H25.5781V20.5312C25.5781 20.9886 25.9489 21.3594 26.4062 21.3594C26.8636 21.3594 27.2344 20.9886 27.2344 20.5312V19.7031L31.0023 19.7031V20.5312C31.0023 20.9886 31.3731 21.3594 31.8304 21.3594C32.2878 21.3594 32.6586 20.9886 32.6586 20.5312V19.7031H33.7351C34.6484 19.7031 35.3914 20.4461 35.3914 21.3594V25.0859C35.3914 25.5433 35.7621 25.914 36.2195 25.914C36.6769 25.914 37.0476 25.5433 37.0476 25.0859V21.3594C37.0476 19.5329 35.5617 18.0469 33.7351 18.0469Z" fill="white"/>
<path d="M28.2305 25.9141C28.6878 25.9141 29.0586 25.5433 29.0586 25.0859C29.0586 24.6286 28.6878 24.2578 28.2305 24.2578C27.7731 24.2578 27.4023 24.6286 27.4023 25.0859C27.4023 25.5433 27.7731 25.9141 28.2305 25.9141Z" fill="white"/>
</g>
<defs>
<clipPath id="clip0">
<rect width="21.2" height="21.2" fill="white" transform="translate(15.8457 16.3926)"/>
</clipPath>
</defs>
</svg>
