<svg width="23" height="22" viewBox="0 0 23 22" fill="none" xmlns="http://www.w3.org/2000/svg">
<path d="M22.1906 18.2152C21.7304 19.5149 19.9036 20.5928 18.4465 20.9076C17.4496 21.1199 16.1475 21.2892 11.7643 19.472C6.15757 17.1492 2.54697 11.4518 2.26557 11.0822C1.99608 10.7126 0 8.06542 0 5.32766C0 2.5899 1.39034 1.25679 1.95077 0.68444C2.41104 0.214633 3.17179 0 3.90154 0C4.13764 0 4.34989 0.0119242 4.54067 0.0214634C5.1011 0.0453115 5.38251 0.0786993 5.75216 0.963463C6.21242 2.0724 7.33328 4.81016 7.46683 5.09156C7.60277 5.37297 7.7387 5.75454 7.54792 6.12419C7.36906 6.50576 7.21166 6.67508 6.93025 6.99941C6.64884 7.32374 6.38174 7.57176 6.10034 7.91995C5.84278 8.22282 5.55183 8.54715 5.87617 9.10758C6.2005 9.65609 7.32136 11.4852 8.97164 12.9543C11.1013 14.8502 12.8279 15.4559 13.4455 15.7135C13.9058 15.9043 14.4543 15.859 14.7906 15.5012C15.2175 15.041 15.7445 14.2778 16.2811 13.5266C16.6626 12.9877 17.1444 12.9209 17.65 13.1117C18.1651 13.2905 20.8909 14.6379 21.4513 14.917C22.0118 15.1984 22.3814 15.3319 22.5173 15.568C22.6509 15.8041 22.6509 16.9131 22.1906 18.2152Z" fill="white"/>
</svg>