<svg width="103" height="27" viewBox="0 0 103 27" fill="none" xmlns="http://www.w3.org/2000/svg">
<path d="M13.3477 26C20.2512 26 25.8477 20.4036 25.8477 13.5C25.8477 6.59644 20.2512 1 13.3477 1C6.44409 1 0.847656 6.59644 0.847656 13.5C0.847656 20.4036 6.44409 26 13.3477 26Z" fill="white"/>
<path d="M51.3477 26C58.2512 26 63.8477 20.4036 63.8477 13.5C63.8477 6.59644 58.2512 1 51.3477 1C44.4441 1 38.8477 6.59644 38.8477 13.5C38.8477 20.4036 44.4441 26 51.3477 26Z" stroke="white" stroke-width="2" stroke-miterlimit="10"/>
<path d="M89.3477 26C96.2512 26 101.848 20.4036 101.848 13.5C101.848 6.59644 96.2512 1 89.3477 1C82.4441 1 76.8477 6.59644 76.8477 13.5C76.8477 20.4036 82.4441 26 89.3477 26Z" stroke="white" stroke-width="2" stroke-miterlimit="10"/>
</svg>
