<svg width="325" height="32" viewBox="0 0 325 32" fill="none" xmlns="http://www.w3.org/2000/svg">
<path d="M0.335938 20.7868C0.335938 20.7868 17.6904 23.7335 19.3438 24.5335C21.1586 25.0401 30.9045 23.4135 30.9045 23.4135L32.5982 21.5068C30.6431 20.6391 28.6416 19.878 26.6028 19.2268C24.1966 18.5068 0.335938 20.7868 0.335938 20.7868ZM0.335938 10.0268C0.335938 10.0268 17.6904 12.9735 19.3438 13.7735C21.1586 14.2935 30.9045 12.6535 30.9045 12.6535L32.5982 10.7468C30.6445 9.87971 28.6428 9.12294 26.6028 8.48013C24.1966 7.76013 0.335938 10.0268 0.335938 10.0268Z" fill="#0F1319"/>
<path d="M0.335938 2.89333V10.0267C24.1966 12 32.5982 7.12 32.5982 7.12V0C32.5982 0 24.1966 4.84 0.335938 2.89333Z" fill="#656565"/>
<path d="M0.335938 13.6537V20.7871C24.2504 22.7337 32.5982 17.8804 32.5982 17.8804V10.7471C32.5982 10.7471 24.1966 15.6004 0.335938 13.6537Z" fill="#656565"/>
<path d="M0.335938 24.4135V31.5335C24.2504 33.4935 32.5982 28.6268 32.5982 28.6268V21.5068C32.5982 21.5068 24.1966 26.3602 0.335938 24.4135Z" fill="#656565"/>
<path d="M58.7711 20.1335V26.8002H54.7383V5.46682H62.8039C64.4677 5.45162 66.1148 5.79747 67.6298 6.48015C68.8984 7.0929 69.9658 8.04993 70.7081 9.24015C71.3692 10.44 71.6941 11.7936 71.6491 13.1602C71.6932 14.1165 71.5163 15.0702 71.1319 15.9484C70.7474 16.8265 70.1657 17.6058 69.4311 18.2268C67.6835 19.568 65.5075 20.2401 63.3012 20.1202L58.7711 20.1335ZM58.7711 16.1335H62.8039C63.9596 16.2232 65.116 15.9678 66.1242 15.4002C66.4373 15.126 66.6818 14.7832 66.8381 14.399C66.9944 14.0148 67.0584 13.5998 67.0248 13.1868C67.0641 12.2293 66.7212 11.2951 66.0704 10.5868C65.1485 9.81571 63.9684 9.41601 62.7635 9.46682H58.7307L58.7711 16.1335ZM87.5383 19.2268C88.657 18.5901 89.5849 17.6698 90.2268 16.5602C90.8126 15.2818 91.08 13.8825 91.0065 12.4802C91.0708 11.5665 90.921 10.6505 90.5689 9.80391C90.2167 8.95728 89.6717 8.20301 88.9766 7.60015C87.2961 6.2252 85.1866 5.47121 83.0081 5.46682H74.9425V26.8002H78.9753V20.1335H83.0888L86.5973 26.8002H91.5711L87.5383 19.2268ZM85.6698 15.2268C84.9219 15.8525 83.9571 16.1635 82.9812 16.0935H78.9484V9.42682H82.9812C83.4729 9.40694 83.9636 9.4839 84.4251 9.65325C84.8865 9.8226 85.3096 10.081 85.6698 10.4135C85.9754 10.7374 86.2117 11.1195 86.3642 11.5366C86.5167 11.9537 86.5822 12.3972 86.557 12.8402C86.5949 13.2842 86.5352 13.7312 86.382 14.1501C86.2289 14.5691 85.9858 14.9501 85.6698 15.2668V15.2268ZM112.582 16.6668C112.619 18.5095 112.224 20.3355 111.426 22.0002C110.712 23.48 109.564 24.7115 108.132 25.5335C106.643 26.3884 104.946 26.8219 103.226 26.7868C101.512 26.8174 99.8216 26.3891 98.3327 25.5468C96.8939 24.7336 95.733 23.5125 94.9989 22.0402C94.1787 20.4056 93.7683 18.5989 93.8025 16.7735V15.7602C93.7653 13.916 94.1659 12.089 94.972 10.4268C95.6958 8.93805 96.8522 7.69819 98.2924 6.86682C99.7953 6.05342 101.48 5.62719 103.192 5.62719C104.904 5.62719 106.589 6.05342 108.092 6.86682C109.526 7.70574 110.681 8.94352 111.412 10.4268C112.22 12.0885 112.621 13.9159 112.582 15.7602V16.6668ZM107.971 15.7335C108.091 14.0052 107.659 12.2834 106.734 10.8135C106.31 10.288 105.772 9.86389 105.16 9.57243C104.548 9.28098 103.878 9.12966 103.199 9.12966C102.52 9.12966 101.85 9.28098 101.238 9.57243C100.626 9.86389 100.088 10.288 99.6635 10.8135C98.7347 12.2676 98.2925 13.9754 98.3999 15.6935V16.6935C98.2964 18.4178 98.7331 20.1317 99.6501 21.6002C100.065 22.1387 100.598 22.5764 101.209 22.8797C101.82 23.183 102.493 23.344 103.176 23.3504C103.859 23.3568 104.535 23.2085 105.151 22.9168C105.768 22.625 106.309 22.1975 106.734 21.6668C107.651 20.2037 108.084 18.4926 107.971 16.7735V15.7335ZM119.236 20.0802V26.7468H115.203V5.46682H123.188C124.708 5.40806 126.217 5.75331 127.557 6.46682C128.77 7.17965 129.8 8.1607 130.568 9.33349C131.255 10.478 131.608 11.7886 131.59 13.1202C131.632 14.0776 131.453 15.032 131.066 15.9102C130.68 16.7884 130.095 17.5672 129.358 18.1868C127.6 19.5146 125.42 20.1723 123.215 20.0402L119.236 20.0802ZM119.236 16.4268H123.269C124.238 16.4767 125.192 16.1785 125.957 15.5868C126.281 15.2789 126.533 14.9046 126.695 14.49C126.858 14.0755 126.927 13.6307 126.898 13.1868C126.938 12.2293 126.595 11.2951 125.944 10.5868C125.592 10.2401 125.171 9.96979 124.708 9.79305C124.246 9.6163 123.751 9.53699 123.255 9.56015H119.236V16.4268ZM151.565 9.46682H144.844V26.8002H140.811V9.46682H134.09V5.46682H151.565V9.46682ZM167.697 18.8002H158.287V22.8002H169.041V26.8002H154.254V5.46682H169.041V9.46682H158.287V14.8002H167.697V18.8002ZM209.369 26.8002H205.336V18.8002H195.926V26.8002H191.893V5.46682H195.926V14.8002H205.336V5.46682H209.369V26.8002ZM232.705 18.3202C233.944 17.8873 235.025 17.0982 235.81 16.0535C236.559 15.017 236.95 13.7684 236.926 12.4935C236.987 11.5795 236.837 10.6637 236.488 9.81583C236.138 8.96793 235.599 8.21017 234.91 7.60015C233.322 6.22787 231.289 5.4703 229.183 5.46682H222.811V26.8002H225.5V18.8002H229.869L234.211 26.8002H237.45L232.705 18.3202ZM229.237 16.1335H225.5V8.13349H229.25C230.538 8.10239 231.792 8.54395 232.772 9.37349C233.191 9.77502 233.518 10.2618 233.729 10.8005C233.94 11.3391 234.031 11.9167 233.996 12.4935C234.017 13.0518 233.914 13.608 233.693 14.1221C233.472 14.6361 233.139 15.0954 232.719 15.4668C231.858 16.2135 230.675 16.1335 229.237 16.1335ZM256.418 5.46682V19.5068C256.465 20.4233 256.325 21.3398 256.006 22.2013C255.687 23.0628 255.197 23.8515 254.563 24.5202C253.14 25.8835 251.257 26.6726 249.28 26.7335H248.514C246.409 26.8435 244.341 26.1519 242.733 24.8002C241.983 24.2629 241.371 23.5582 240.946 22.7429C240.521 21.9276 240.295 21.0246 240.287 20.1068V5.46682H242.975V20.1335C242.975 21.7202 243.876 22.2135 244.75 23.0802C245.253 23.5439 245.847 23.9012 246.494 24.1304C247.141 24.3596 247.828 24.4559 248.514 24.4135C249.201 24.4547 249.89 24.3578 250.539 24.1287C251.188 23.8996 251.784 23.543 252.291 23.0802C252.769 22.5999 253.144 22.0286 253.394 21.4008C253.643 20.7729 253.762 20.1014 253.743 19.4268V5.46682H256.418ZM267.616 17.3335C265.627 16.9139 263.755 16.0674 262.131 14.8535C261.59 14.4177 261.156 13.8663 260.861 13.2406C260.565 12.6149 260.416 11.9311 260.424 11.2402C260.418 10.4559 260.605 9.68201 260.968 8.98521C261.331 8.28842 261.859 7.68954 262.507 7.24015C264.068 6.12361 265.962 5.56007 267.884 5.64015C269.273 5.62006 270.65 5.90224 271.917 6.46682C273.033 6.94944 273.988 7.73524 274.673 8.73349C275.318 9.65775 275.66 10.7563 275.654 11.8802H272.885C272.906 11.3154 272.796 10.7535 272.563 10.2379C272.33 9.72223 271.98 9.26678 271.541 8.90682C270.512 8.13595 269.238 7.75739 267.952 7.84015C266.766 7.77103 265.588 8.07933 264.591 8.72015C264.2 9.00076 263.885 9.37273 263.674 9.80303C263.463 10.2333 263.363 10.7087 263.381 11.1868C263.389 11.6065 263.496 12.0185 263.695 12.3892C263.894 12.7599 264.178 13.0789 264.524 13.3202C265.716 14.0816 267.036 14.6237 268.422 14.9202C269.916 15.273 271.361 15.8058 272.724 16.5068C273.646 16.9916 274.435 17.6918 275.023 18.5468C275.542 19.3634 275.804 20.3151 275.775 21.2802C275.788 22.0657 275.604 22.842 275.24 23.5399C274.877 24.2379 274.345 24.8357 273.692 25.2802C272.034 26.3533 270.077 26.8806 268.1 26.7868C266.644 26.7942 265.2 26.5179 263.852 25.9735C262.65 25.518 261.593 24.7542 260.787 23.7602C260.083 22.8308 259.709 21.696 259.725 20.5335H262.642C262.623 21.1096 262.748 21.6813 263.006 22.1978C263.264 22.7143 263.647 23.1594 264.121 23.4935C265.287 24.2647 266.673 24.6434 268.073 24.5735C269.315 24.6512 270.55 24.3436 271.608 23.6935C272.001 23.4355 272.323 23.0849 272.546 22.673C272.769 22.2612 272.886 21.8009 272.885 21.3335C272.913 20.8781 272.823 20.4231 272.623 20.0123C272.422 19.6014 272.119 19.2483 271.743 18.9868C270.466 18.2173 269.073 17.6589 267.616 17.3335ZM286.019 17.3335C284.046 16.9095 282.189 16.0681 280.574 14.8668C280.034 14.431 279.599 13.8796 279.304 13.254C279.008 12.6283 278.859 11.9444 278.867 11.2535C278.865 10.4698 279.053 9.69715 279.416 9.0009C279.779 8.30466 280.305 7.70528 280.951 7.25349C282.512 6.13882 284.405 5.57548 286.328 5.65349C287.717 5.63033 289.094 5.91265 290.361 6.48015C291.48 6.96252 292.44 7.74811 293.13 8.74682C293.764 9.67522 294.102 10.7719 294.098 11.8935H291.181C291.197 11.3334 291.084 10.777 290.851 10.2664C290.618 9.75592 290.271 9.30466 289.836 8.94682C288.808 8.17595 287.534 7.79739 286.247 7.88015C285.061 7.81103 283.884 8.11933 282.886 8.76015C282.5 9.04384 282.189 9.41676 281.98 9.84658C281.772 10.2764 281.672 10.7502 281.69 11.2268C281.698 11.6465 281.805 12.0585 282.004 12.4292C282.202 12.7999 282.486 13.1189 282.833 13.3602C284.02 14.122 285.336 14.6641 286.718 14.9602C288.216 15.3132 289.665 15.8461 291.033 16.5468C291.955 17.0316 292.743 17.7318 293.331 18.5868C293.845 19.4059 294.107 20.3558 294.084 21.3202C294.098 22.1073 293.913 22.8853 293.547 23.5837C293.18 24.2821 292.644 24.879 291.987 25.3202C290.329 26.3933 288.372 26.9206 286.395 26.8268C284.943 26.8342 283.504 26.5578 282.161 26.0135C280.966 25.5536 279.917 24.7848 279.123 23.7868C278.419 22.8563 278.041 21.7232 278.047 20.5602H280.978C280.955 21.1368 281.079 21.7098 281.337 22.2269C281.595 22.744 281.98 23.1886 282.456 23.5202C283.617 24.2921 284.999 24.671 286.395 24.6002C287.637 24.6779 288.873 24.3703 289.93 23.7202C290.32 23.4562 290.636 23.0992 290.85 22.6821C291.064 22.265 291.168 21.8012 291.154 21.3335C291.177 20.8801 291.086 20.4281 290.888 20.0184C290.691 19.6087 290.394 19.2542 290.024 18.9868C288.784 18.2333 287.432 17.6755 286.019 17.3335ZM300.779 26.8002H298.09V5.46682H300.779V26.8002ZM318.872 21.4668H309.463L307.433 26.8002H304.435L312.81 5.46682H315.498L323.846 26.8002H320.862L318.872 21.4668ZM310.551 18.8002H317.851L314.194 9.33349L310.551 18.8002ZM184.164 20.1335C184.056 20.9854 183.674 21.7801 183.075 22.4002C182.17 23.0674 181.054 23.3893 179.929 23.3068C179.273 23.3572 178.615 23.2403 178.018 22.9672C177.42 22.6942 176.903 22.2741 176.515 21.7468C175.674 20.2479 175.296 18.5372 175.426 16.8268V15.2668C175.326 13.6015 175.729 11.9444 176.582 10.5068C176.979 9.99092 177.499 9.58076 178.094 9.31315C178.69 9.04553 179.344 8.92882 179.997 8.97349C181.108 8.89109 182.212 9.21343 183.102 9.88015C183.707 10.4991 184.109 11.2843 184.258 12.1335H188.734C188.439 10.3047 187.524 8.63052 186.14 7.38682C184.553 6.26522 182.683 5.60383 180.738 5.47667C178.794 5.34951 176.852 5.7616 175.13 6.66682C173.737 7.49495 172.623 8.71562 171.931 10.1735C171.146 11.8409 170.764 13.6672 170.815 15.5068V16.8402C170.665 19.5137 171.533 22.1458 173.248 24.2135C174.1 25.123 175.145 25.8339 176.307 26.295C177.47 26.7561 178.72 26.956 179.97 26.8802C182.218 26.9881 184.433 26.3032 186.221 24.9468C187.627 23.7339 188.532 22.0481 188.761 20.2135L184.164 20.1335Z" fill="#0F1319"/>
</svg>
