<svg width="38" height="51" viewBox="0 0 38 51" fill="none" xmlns="http://www.w3.org/2000/svg">
<path d="M32.1126 44.659C31.6482 44.8087 30.5555 45.1217 30.5555 46.5096C30.5555 47.2852 31.1701 48.6731 33.5058 48.6731C35.063 48.6731 36.4562 48.0608 36.4562 46.5096C36.4562 45.5843 35.8415 44.8087 34.8991 44.659V42.9581C36.7567 43.2711 37.9997 44.5094 37.9997 46.5096C37.9997 48.6731 36.4425 50.374 33.6561 50.374C30.7057 50.374 29.3125 48.6731 29.3125 46.5096C29.3125 44.0331 31.0199 42.9581 32.2629 42.9581V44.659H32.1126Z" fill="white"/>
<path d="M33.8201 40.7945L31.4844 38.7806V36.7803L33.9703 38.9439L37.6993 36.7803V38.6309L35.0631 40.1821L35.828 40.7945H37.6993V42.4954H31.4844V40.7945H33.8201Z" fill="white"/>
<path d="M34.5967 35.5422C35.3752 35.5422 36.4543 35.2293 36.4543 33.991C36.4543 32.7527 35.3752 32.4398 34.5967 32.4398C33.8181 32.4398 32.739 32.5895 32.739 33.991C32.7254 35.2293 33.8181 35.5422 34.5967 35.5422ZM34.5967 30.9022C36.7684 30.9022 37.8612 32.4534 37.8612 33.991C37.8612 35.6919 36.7821 37.0798 34.5967 37.0798C32.4249 37.0798 31.3458 35.5286 31.3458 33.991C31.3322 32.2901 32.4249 30.9022 34.5967 30.9022Z" fill="white"/>
<path d="M31.4824 24.7245H37.6837V26.2757H32.8757V27.9766H34.7333C37.0553 27.9766 37.8339 28.7522 37.8339 29.8272C37.8339 30.1401 37.8339 30.6028 37.6837 30.7524H36.4407V30.2898C36.4407 29.8272 36.1265 29.5142 34.2689 29.5142H31.4824V24.7245Z" fill="white"/>
<path d="M33.8201 22.3978L31.4844 20.2343V18.3837L33.9703 20.5472L37.6993 18.234V20.2343L35.0631 21.6358L35.828 22.3978H37.6993V23.949H31.4844V22.3978H33.8201Z" fill="white"/>
<path d="M34.5967 16.9956C35.3752 16.9956 36.4543 16.6826 36.4543 15.4444C36.4543 14.2061 35.3752 13.8932 34.5967 13.8932C33.8181 13.8932 32.739 14.0428 32.739 15.4444C32.7254 16.6826 33.8181 16.9956 34.5967 16.9956ZM34.5967 12.3556C36.7684 12.3556 37.8612 13.9068 37.8612 15.4444C37.8612 17.1453 36.7821 18.5332 34.5967 18.5332C32.4249 18.5332 31.3458 16.982 31.3458 15.4444C31.3322 13.9068 32.4249 12.3556 34.5967 12.3556Z" fill="white"/>
<path d="M36.6065 10.1923V8.95402C36.6065 8.3417 36.4563 8.02874 35.828 8.02874C35.3636 8.02874 35.0494 8.49137 35.0494 8.95402V10.1923H36.6065ZM33.9703 10.1923V9.11729C33.9703 8.65465 33.8201 8.19202 33.1918 8.19202C32.7274 8.19202 32.5771 8.50497 32.5771 9.11729V10.1923H33.9703ZM31.4844 11.8932V9.11729C31.4844 7.72937 32.099 6.80407 33.0415 6.80407C33.8201 6.80407 34.2845 7.26673 34.4347 7.89266C34.585 7.28034 35.0494 6.50471 35.9919 6.50471C37.071 6.50471 37.6993 7.43001 37.6993 8.81794V11.9067H31.4844V11.8932Z" fill="white"/>
<path d="M34.5967 4.62677C35.3752 4.62677 36.4543 4.31379 36.4543 3.07553C36.4543 1.83726 35.3752 1.52432 34.5967 1.52432C33.8181 1.52432 32.739 1.67398 32.739 3.07553C32.7254 4.47707 33.8181 4.62677 34.5967 4.62677ZM34.5967 0.00027132C36.7684 0.00027132 37.8612 1.55153 37.8612 3.08915C37.8612 4.79005 36.7821 6.17798 34.5967 6.17798C32.4249 6.17798 31.3458 4.62677 31.3458 3.08915C31.3322 1.53792 32.4249 0.00027132 34.5967 0.00027132Z" fill="white"/>
<path d="M11.938 35.0796L10.3809 41.5703C10.0667 42.6452 9.76622 44.3461 7.59443 44.3461C5.27239 44.3461 4.49383 41.8696 4.49383 39.7061C4.49383 34.9164 7.28028 34.4537 8.52325 34.2904V31.2016H13.4951C12.7166 32.4535 12.4024 33.6917 11.938 35.0796ZM27.7689 38.6311C27.7689 37.2432 27.4547 33.8414 25.5971 31.3649H26.9903V26.2622H20.7891L18.6173 24.0987L26.9903 19.4587V13.281L15.0523 20.3976L7.44418 13.594L7.44418 19.9349L14.8884 26.4255H0.614657L0.614657 31.5282H2.95036C1.24297 33.0794 0 35.5423 0 39.57C0 48.0745 5.27239 49.6121 8.0725 49.6121C12.1019 49.6121 14.2737 47.4485 15.2025 43.7338L16.4455 38.4814C17.0602 35.7056 17.6885 33.6917 19.71 33.6917C22.4965 33.6917 23.1248 36.6309 23.1248 39.257C23.1248 44.0467 20.3383 44.8223 18.7812 44.8223V50.0747C22.1823 49.9114 27.7689 48.2105 27.7689 38.6311Z" fill="white"/>
</svg>
