<svg width="390" height="120" viewBox="0 0 390 120" fill="none" xmlns="http://www.w3.org/2000/svg">
<mask id="path-1-inside-1" fill="white">
<path fill-rule="evenodd" clip-rule="evenodd" d="M20.1667 60C8.38949 55.6166 7.91408e-06 44.272 1.38749e-05 30.9679C2.15377e-05 13.8648 13.8648 3.8147e-06 30.9679 3.8147e-06H359.032C376.135 3.8147e-06 390 13.8648 390 30.9679C390 44.272 381.61 55.6166 369.833 60C381.61 64.3834 390 75.728 390 89.0321C390 106.135 376.135 120 359.032 120L30.9678 120C13.8648 120 3.10599e-06 106.135 6.93743e-06 89.0321C9.91781e-06 75.728 8.38949 64.3834 20.1667 60Z"/>
</mask>
<path fill-rule="evenodd" clip-rule="evenodd" d="M20.1667 60C8.38949 55.6166 7.91408e-06 44.272 1.38749e-05 30.9679C2.15377e-05 13.8648 13.8648 3.8147e-06 30.9679 3.8147e-06H359.032C376.135 3.8147e-06 390 13.8648 390 30.9679C390 44.272 381.61 55.6166 369.833 60C381.61 64.3834 390 75.728 390 89.0321C390 106.135 376.135 120 359.032 120L30.9678 120C13.8648 120 3.10599e-06 106.135 6.93743e-06 89.0321C9.91781e-06 75.728 8.38949 64.3834 20.1667 60Z" fill="white" fill-opacity="0.42"/>
<path d="M20.1667 60L20.5155 60.9372L23.0335 60L20.5155 59.0628L20.1667 60ZM1.38749e-05 30.9679H1.00001H1.38749e-05ZM390 30.9679L389 30.9679V30.9679H390ZM369.833 60L369.484 59.0628L366.966 60L369.484 60.9372L369.833 60ZM359.032 120V121V120ZM30.9678 120V119V120ZM6.93743e-06 89.0321H-0.999993H6.93743e-06ZM20.5155 59.0628C9.11707 54.8204 1.00001 43.8408 1.00001 30.9679H-0.999986C-0.999992 44.7032 7.66191 56.4128 19.8179 60.9372L20.5155 59.0628ZM1.00001 30.9679C1.00002 14.4171 14.4171 1 30.9679 1V-0.999996C13.3125 -0.999996 -0.999978 13.3125 -0.999986 30.9679H1.00001ZM30.9679 1H359.032V-0.999996H30.9679V1ZM359.032 1C375.583 1 389 14.4171 389 30.9679L391 30.9679C391 13.3125 376.688 -0.999996 359.032 -0.999996V1ZM389 30.9679C389 43.8408 380.883 54.8204 369.484 59.0628L370.182 60.9372C382.338 56.4128 391 44.7032 391 30.9679H389ZM369.484 60.9372C380.883 65.1796 389 76.1592 389 89.0321H391C391 75.2968 382.338 63.5872 370.182 59.0628L369.484 60.9372ZM389 89.0321C389 105.583 375.583 119 359.032 119V121C376.688 121 391 106.688 391 89.0321H389ZM359.032 119L30.9678 119V121L359.032 121V119ZM30.9678 119C14.4171 119 1 105.583 1.00001 89.0321H-0.999993C-0.999997 106.687 13.3125 121 30.9678 121V119ZM1.00001 89.0321C1.00001 76.1592 9.11707 65.1796 20.5155 60.9372L19.8179 59.0628C7.66192 63.5872 -0.99999 75.2968 -0.999993 89.0321H1.00001Z" fill="#3DBBEE" mask="url(#path-1-inside-1)"/>
</svg>
