<svg width="195" height="63" viewBox="0 0 195 63" fill="none" xmlns="http://www.w3.org/2000/svg">
<g clip-path="url(#clip0)">
<path d="M189.672 13.6084L188.342 13.6154L188.365 18.0016L188.065 18.0032L188.042 13.617L186.713 13.624L186.711 13.3243L189.67 13.3086L189.672 13.6084Z" fill="#0F1319"/>
<path d="M194.977 13.2988L195.002 17.965L194.702 17.9666L194.681 13.867L192.977 16.0424L191.169 13.8722L191.191 17.9851L190.891 17.9867L190.867 13.3206L191.106 13.3193L192.967 15.5627L194.738 13.3001L194.977 13.2988Z" fill="#0F1319"/>
<path d="M2.91952 39.6237C7.07171 42.5731 11.5807 42.6798 13.2514 42.5287C15.3809 42.3775 17.2065 40.8566 17.0044 38.8772C16.8555 36.7942 15.2858 35.8792 13.26 35.1653C7.58822 33.0769 2.52416 30.1796 2.53086 24.0853C2.53883 17.9916 6.7465 13.3239 12.7773 13.026C14.6504 12.925 17.1332 12.9295 21.792 14.5581L20.8715 21.5651C16.874 19.9372 14.5921 19.9848 13.4784 20.0343C10.8949 20.1845 9.7276 22.0617 9.87745 24.0923C10.0764 26.1242 11.8494 27.041 13.9254 27.7537C19.5471 29.8405 24.4083 33.0948 24.4004 38.8849C24.3959 44.9261 20.2351 49.5456 13.4452 49.8904C11.4181 50.0422 6.91229 49.7824 2 47.2402L2.91952 39.6237Z" fill="#0F1319"/>
<path d="M37.457 49.6115L37.4857 20.5665L28.4688 20.5556L28.4758 13.3447L53.7556 13.3703L53.7489 20.5825L44.7325 20.5745L44.7045 49.6176L37.457 49.6115Z" fill="#0F1319"/>
<path d="M78.6185 11.2744H79.6621L94.0836 49.544L85.9284 49.5878L74.9883 20.2484L78.6185 11.2744Z" fill="#0F1319"/>
<path d="M104.111 49.564L104.138 20.5187L95.123 20.5091L95.1323 13.2969L120.41 13.3234L120.403 20.535L111.389 20.5257L111.358 49.571L104.111 49.564Z" fill="#0F1319"/>
<path d="M163.586 12.7217C188.509 12.7485 188.472 50.1716 163.548 50.1476C138.62 50.1214 138.659 12.6958 163.586 12.7217ZM163.578 20.1867C149.086 20.1707 149.064 42.6158 163.553 42.6321C178.042 42.6471 178.065 20.2017 163.578 20.1867Z" fill="#0F1319"/>
<path d="M136.729 28.633L136.733 13.3748L131.07 13.3662C132.922 18.3679 134.836 23.5326 136.729 28.633Z" fill="#0F1319"/>
<path d="M141.747 63L118.177 0.0108645L117.273 0L129.344 32.2229L129.327 49.5883L135.846 49.5954L140.863 63H141.747Z" fill="#0F1319"/>
<path d="M83.1795 63L59.4818 0H58.6385L66.4853 20.9773L54.9336 49.627L63.1426 49.6369L64.6836 45.7285L75.7997 45.7397L82.2909 63H83.1795ZM67.4345 38.9263L70.4427 31.5006L73.2398 38.934L67.4345 38.9263Z" fill="#0F1319"/>
</g>
<defs>
<clipPath id="clip0">
<rect width="195" height="63" fill="white"/>
</clipPath>
</defs>
</svg>
