<svg width="43" height="11" viewBox="0 0 43 11" fill="none" xmlns="http://www.w3.org/2000/svg">
<circle cx="37.5" cy="5.5" r="5.5" fill="#66D1FC"/>
<rect x="35" y="5" width="5" height="1.5" rx="0.75" fill="white"/>
<circle cx="21.5" cy="5.5" r="5.5" fill="#66D1FC"/>
<circle cx="5.5" cy="5.5" r="5.5" fill="#66D1FC"/>
<g clip-path="url(#clip0)">
<path d="M6.00886 5.60375L7.95576 3.65679C8.08246 3.53014 8.08246 3.32538 7.95576 3.19874C7.82912 3.0721 7.62436 3.0721 7.49771 3.19874L5.55075 5.1457L3.60385 3.19874C3.47715 3.0721 3.27245 3.0721 3.14581 3.19874C3.01911 3.32538 3.01911 3.53014 3.14581 3.65679L5.09271 5.60375L3.14581 7.55071C3.01911 7.67735 3.01911 7.88211 3.14581 8.00875C3.20892 8.07192 3.2919 8.10366 3.37483 8.10366C3.45775 8.10366 3.54068 8.07192 3.60385 8.00875L5.55075 6.06179L7.49771 8.00875C7.56089 8.07192 7.64381 8.10366 7.72674 8.10366C7.80966 8.10366 7.89259 8.07192 7.95576 8.00875C8.08246 7.88211 8.08246 7.67735 7.95576 7.55071L6.00886 5.60375Z" fill="white"/>
</g>
<defs>
<clipPath id="clip0">
<rect width="5" height="5" fill="white" transform="translate(3.05078 3.10059)"/>
</clipPath>
</defs>
</svg>
