<svg width="102" height="139" viewBox="0 0 102 139" fill="none" xmlns="http://www.w3.org/2000/svg">
<path d="M101 14.4636L1 1L73 138L101 14.4636Z" fill="white"/>
<path d="M101 14.4636L101.488 14.5741L101.608 14.041L101.067 13.9681L101 14.4636ZM1 1L1.06672 0.504471L0.557401 1.23261L1 1ZM73 138L72.5574 138.233L73.4876 138.111L73 138ZM101.067 13.9681L1.06672 0.504471L0.933284 1.49553L100.933 14.9591L101.067 13.9681ZM0.557401 1.23261L72.5574 138.233L73.4426 137.767L1.4426 0.767393L0.557401 1.23261ZM73.4876 138.111L101.488 14.5741L100.512 14.3531L72.5124 137.889L73.4876 138.111Z" fill="#0F1319"/>
</svg>
