<svg width="41" height="40" viewBox="0 0 41 40" fill="none" xmlns="http://www.w3.org/2000/svg">
<g clip-path="url(#clip0)">
<path d="M33.5911 21.7179C32.956 20.9012 33.1377 20.5379 33.5911 19.8079C33.5993 19.7996 38.8423 12.4229 39.3825 9.92122L39.3858 9.91956C39.6542 9.00789 39.3858 8.33789 38.0877 8.33789H33.7925C32.699 8.33789 32.1949 8.91289 31.9248 9.55622C31.9248 9.55622 29.7379 14.8862 26.6441 18.3412C25.6456 19.3396 25.184 19.6596 24.6389 19.6596C24.3705 19.6596 23.9531 19.3396 23.9531 18.4279V9.91956C23.9531 8.82622 23.6469 8.33789 22.7417 8.33789H15.9879C15.302 8.33789 14.8944 8.84789 14.8944 9.32289C14.8944 10.3596 16.4413 10.5979 16.6017 13.5146V19.8429C16.6017 21.2296 16.3545 21.4846 15.8062 21.4846C14.3461 21.4846 10.8022 16.1329 8.70201 10.0079C8.27805 8.81956 7.86391 8.33956 6.76228 8.33956H2.4654C1.23936 8.33956 0.992188 8.91456 0.992188 9.55789C0.992188 10.6946 2.45231 16.3462 7.78207 23.8129C11.3342 28.9096 16.3365 31.6712 20.8871 31.6712C23.6224 31.6712 23.9563 31.0579 23.9563 30.0029C23.9563 25.1329 23.7092 24.6729 25.0792 24.6729C25.7144 24.6729 26.8078 24.9929 29.3614 27.4512C32.28 30.3662 32.7596 31.6712 34.3932 31.6712H38.6885C39.9129 31.6712 40.5333 31.0579 40.1764 29.8479C39.3596 27.3029 33.84 22.0679 33.5911 21.7179Z" fill="#8C8C8C"/>
</g>
<defs>
<clipPath id="clip0">
<rect width="39.2857" height="40" fill="white" transform="translate(0.992188)"/>
</clipPath>
</defs>
</svg>
