<svg width="41" height="29" viewBox="0 0 41 29" fill="none" xmlns="http://www.w3.org/2000/svg">
<path d="M39.4885 4.88332C38.9988 2.75604 37.2588 1.1866 35.1642 0.952482C30.2039 0.398779 25.1835 0.395888 20.1861 0.398779C15.1879 0.395888 10.1666 0.398779 5.20637 0.952482C3.11295 1.1866 1.37422 2.75604 0.884513 4.88332C0.187533 7.91279 0.179688 11.2197 0.179688 14.3388C0.179688 17.4579 0.179688 20.7644 0.876668 23.7935C1.36555 25.9203 3.10469 27.4898 5.19935 27.7243C10.1591 28.2784 15.18 28.2813 20.1782 28.2784C25.1773 28.2813 30.1969 28.2784 35.1563 27.7243C37.2497 27.4902 38.9901 25.9207 39.4798 23.7935C40.1772 20.764 40.1797 17.4575 40.1797 14.3388C40.1797 11.2197 40.1855 7.91279 39.4885 4.88332ZM15.0178 20.5472C15.0178 16.1225 15.0178 11.7441 15.0178 7.31904C19.2571 9.53096 23.4683 11.728 27.7344 13.9536C23.4815 16.1593 19.2682 18.3431 15.0178 20.5472Z" fill="#8C8C8C"/>
</svg>
